<svg width="667" height="417" viewBox="0 0 667 417" fill="none" xmlns="http://www.w3.org/2000/svg">
<path d="M515.344 50.4095L523.838 36.7108L519.617 34.1186C519.019 33.7375 518.539 33.197 518.231 32.5581C517.924 31.9192 517.8 31.207 517.875 30.5018C517.94 29.7181 517.964 28.9315 517.947 28.1453C517.93 27.426 518.113 26.7162 518.475 26.0942C518.836 25.4723 519.363 24.9623 519.996 24.6207L524.351 22.2949L516.728 8.08395L512.383 10.4098C511.771 10.7437 511.078 10.9014 510.382 10.8652C509.686 10.829 509.013 10.6004 508.439 10.2048C507.742 9.70604 507.013 9.25422 506.256 8.85239C505.637 8.525 505.12 8.03135 504.766 7.42686C504.411 6.82237 504.232 6.13098 504.248 5.43029L504.402 0.502043L488.295 0L488.162 4.92824C488.138 5.62725 487.922 6.30606 487.537 6.88996C487.152 7.47385 486.613 7.94019 485.98 8.23764C485.601 8.41182 485.222 8.59624 484.853 8.79091L483.767 9.41591C483.173 9.78012 482.491 9.97291 481.794 9.97291C481.098 9.97291 480.416 9.78012 479.822 9.41591L475.601 6.79298L467.097 20.4916L471.328 23.1146C471.925 23.4953 472.404 24.0338 472.714 24.6704C473.023 25.307 473.15 26.0168 473.08 26.7211C473.012 27.5012 472.985 28.2844 472.998 29.0674C473.021 29.7804 472.847 30.4858 472.494 31.1059C472.142 31.726 471.625 32.2367 471.001 32.5817L466.646 34.9178L474.269 49.1287L478.623 46.7927C479.257 46.4625 479.97 46.3145 480.682 46.3651C481.395 46.4158 482.08 46.6631 482.66 47.0796C483.309 47.5167 483.975 47.9265 484.658 48.3091C485.286 48.6361 485.81 49.1314 486.172 49.7394C486.533 50.3474 486.719 51.0442 486.707 51.7517L486.554 56.7311L502.67 57.2332L502.824 52.2844C502.851 51.5782 503.074 50.8934 503.469 50.307C503.863 49.7206 504.414 49.2558 505.058 48.9648C505.416 48.7906 505.775 48.6164 506.082 48.4218C506.39 48.2271 506.769 48.0427 507.107 47.8377C507.713 47.4664 508.409 47.2698 509.12 47.2698C509.831 47.2698 510.528 47.4664 511.133 47.8377L515.344 50.4095ZM503.162 39.3337C500.92 40.9438 498.229 41.8107 495.469 41.8127C492.708 41.8146 490.016 40.9515 487.772 39.3446C485.527 37.7377 483.842 35.4679 482.954 32.8541C482.066 30.2402 482.02 27.4139 482.821 24.7722C483.622 22.1305 485.231 19.8063 487.422 18.1263C489.612 16.4463 492.274 15.4949 495.033 15.4058C497.792 15.3167 500.51 16.0945 502.804 17.6297C505.098 19.1649 506.854 21.3805 507.824 23.965C508.844 26.6829 508.94 29.6613 508.098 32.4394C507.255 35.2175 505.52 37.6405 503.162 39.3337Z" fill="#0000FF"/>
<path d="M17.7356 125.491C18.165 125.742 18.5161 126.109 18.7495 126.548C18.9829 126.988 19.0895 127.484 19.0573 127.981C19.0573 128.257 19.0573 128.534 19.0573 128.81C19.0573 129.087 19.0573 129.374 19.0573 129.651C19.0909 130.145 18.986 130.639 18.7543 131.077C18.5226 131.515 18.1734 131.88 17.7458 132.13L14.7438 133.862L20.3892 143.646L23.3912 141.915C23.8215 141.666 24.3131 141.544 24.8097 141.562C25.3062 141.58 25.7876 141.738 26.1986 142.017C26.6699 142.314 27.1515 142.601 27.6535 142.858C28.0988 143.079 28.4743 143.419 28.7383 143.84C29.0023 144.261 29.1446 144.748 29.1494 145.245V148.698H40.4198V145.245C40.4216 144.749 40.5603 144.264 40.8207 143.843C41.0811 143.422 41.453 143.081 41.8952 142.858C42.3973 142.601 42.9198 142.314 43.3501 142.017C43.7632 141.738 44.2462 141.581 44.7443 141.563C45.2423 141.545 45.7355 141.667 46.1677 141.915L49.1697 143.646L54.8152 133.862L51.8029 132.12C51.3753 131.869 51.0261 131.505 50.7944 131.067C50.5627 130.629 50.4578 130.135 50.4915 129.64C50.4915 129.364 50.4915 129.087 50.4915 128.81C50.4915 128.534 50.4915 128.257 50.4915 127.981C50.4581 127.484 50.5641 126.987 50.7976 126.547C51.0312 126.108 51.3829 125.742 51.8132 125.491L54.8152 123.759L49.1697 113.975L46.178 115.706C45.7452 115.951 45.2533 116.072 44.7562 116.056C44.2591 116.04 43.7761 115.887 43.3604 115.614C42.8908 115.305 42.4051 115.021 41.9055 114.763C41.4606 114.543 41.0859 114.202 40.8235 113.781C40.5611 113.359 40.4213 112.873 40.4198 112.376V108.913H29.1494V112.366C29.1455 112.862 29.0048 113.347 28.7426 113.769C28.4805 114.19 28.1072 114.531 27.6638 114.753C27.1607 115.011 26.6717 115.295 26.1986 115.604C25.7848 115.877 25.3035 116.03 24.808 116.046C24.3124 116.062 23.8221 115.941 23.3912 115.696L20.3995 113.964L14.754 123.749L17.7356 125.491ZM34.7846 119.558C36.6084 119.558 38.3912 120.099 39.9077 121.113C41.4241 122.126 42.606 123.566 43.3039 125.251C44.0019 126.936 44.1845 128.79 43.8287 130.579C43.4729 132.367 42.5946 134.011 41.305 135.3C40.0154 136.59 38.3723 137.468 36.5836 137.824C34.7948 138.18 32.9408 137.997 31.2558 137.299C29.5708 136.601 28.1307 135.419 27.1174 133.903C26.1042 132.386 25.5634 130.604 25.5634 128.78C25.5634 126.334 26.5349 123.989 28.2642 122.259C29.9935 120.53 32.339 119.558 34.7846 119.558Z" fill="#FF00FF" fill-opacity="0.5"/>
<path d="M615.067 155.47C615.494 155.724 615.842 156.091 616.074 156.53C616.305 156.97 616.41 157.464 616.378 157.96C616.378 158.237 616.378 158.513 616.378 158.8C616.378 159.087 616.378 159.353 616.378 159.63C616.41 160.126 616.305 160.62 616.074 161.06C615.842 161.499 615.494 161.866 615.067 162.12L612.065 163.851L617.71 173.626L620.712 171.904C621.144 171.657 621.637 171.535 622.134 171.551C622.632 171.567 623.115 171.722 623.53 171.997C623.996 172.308 624.482 172.589 624.985 172.837C625.427 173.06 625.799 173.401 626.059 173.822C626.32 174.244 626.459 174.729 626.46 175.224V178.687H637.731V175.224C637.735 174.728 637.875 174.243 638.138 173.821C638.4 173.4 638.773 173.059 639.216 172.837C639.718 172.587 640.204 172.306 640.671 171.997C641.084 171.721 641.566 171.567 642.062 171.551C642.558 171.534 643.049 171.657 643.479 171.904L646.481 173.626L652.126 163.851L649.114 162.109C648.688 161.857 648.34 161.492 648.108 161.055C647.877 160.617 647.771 160.124 647.802 159.63C647.802 159.35 647.802 159.073 647.802 158.8C647.802 158.513 647.802 158.237 647.802 157.96C647.771 157.463 647.878 156.968 648.112 156.528C648.345 156.089 648.695 155.723 649.124 155.47L652.126 153.739L646.481 143.964L643.489 145.685C643.059 145.933 642.568 146.056 642.072 146.039C641.576 146.023 641.094 145.869 640.682 145.593C640.208 145.287 639.719 145.007 639.216 144.753C638.773 144.53 638.4 144.19 638.138 143.769C637.875 143.347 637.735 142.862 637.731 142.366V138.903H626.481V142.366C626.479 142.862 626.339 143.349 626.077 143.77C625.815 144.192 625.44 144.532 624.995 144.753C624.496 145.007 624.01 145.288 623.54 145.593C623.125 145.868 622.642 146.023 622.145 146.039C621.647 146.055 621.155 145.933 620.723 145.685L617.731 143.964L612.085 153.739L615.067 155.47ZM632.106 149.538C633.93 149.538 635.712 150.079 637.229 151.092C638.745 152.105 639.927 153.545 640.625 155.23C641.323 156.915 641.506 158.769 641.15 160.558C640.794 162.347 639.916 163.99 638.626 165.28C637.337 166.569 635.693 167.447 633.905 167.803C632.116 168.159 630.262 167.976 628.577 167.278C626.892 166.58 625.452 165.399 624.439 163.882C623.425 162.366 622.885 160.583 622.885 158.759C622.885 156.313 623.856 153.968 625.585 152.239C627.315 150.509 629.66 149.538 632.106 149.538Z" fill="#EBEBEB"/>
<path d="M655.518 83.7494H654.011V82.7555H654.513V82.2535H655.518V83.7494Z" fill="#EBEBEB"/>
<path d="M652.013 83.7494H650.046V82.7248H652.044L652.013 83.7494ZM648.018 83.7494H646.02V82.7248H647.997L648.018 83.7494ZM644.032 83.7494H641.983V82.7248H644.032V83.7494ZM640.036 83.7494H637.987V82.7248H640.036V83.7494ZM636.04 83.7494H633.991V82.7248H636.04V83.7494ZM632.044 83.7494H630.046V82.7248H632.044V83.7494ZM628.049 83.7494H626.051V82.7248H628.049V83.7494ZM624.053 83.7494H622.003V82.7248H624.053V83.7494ZM620.057 83.7494H618.008V82.7248H620.057V83.7494ZM616.061 83.7494H614.012V82.7248H616.061V83.7494ZM612.065 83.7494H610.088V82.7248H612.086L612.065 83.7494ZM608.069 83.7494H606.071V82.7248H608.038L608.069 83.7494ZM604.073 83.7494H602.024V82.7248H604.073V83.7494ZM600.077 83.7494H598.028V82.7248H600.077V83.7494ZM596.082 83.7494H594.032V82.7248H596.082V83.7494ZM592.086 83.7494H590.098V82.7248H592.086V83.7494ZM588.1 83.7494H586.102V82.7248H588.1V83.7494Z" fill="#EBEBEB"/>
<path d="M584.104 83.7494H582.598V82.2535H583.602V82.7555H584.104V83.7494Z" fill="#EBEBEB"/>
<path d="M583.602 80.2248H582.578V78.1756H583.602V80.2248ZM583.602 76.2289H582.578V74.231H583.602V76.2289ZM583.602 72.2331H582.578V70.1839H583.602V72.2331ZM583.602 68.2372H582.578V66.188H583.602V68.2372ZM583.602 64.2413H582.578V62.1922H583.602V64.2413ZM583.602 60.2455H582.578V58.1963H583.602V60.2455ZM583.602 56.2496H582.578V54.2824H583.602V56.2496ZM583.602 52.264H582.578V50.2968H583.602V52.264ZM583.602 48.2681H582.578V46.2189H583.602V48.2681ZM583.602 44.2722H582.578V42.3153H583.602V44.2722ZM583.602 40.2763H582.578V38.2272H583.602V40.2763ZM583.602 36.2805H582.578V34.2313H583.602V36.2805ZM583.602 32.2846H582.578V30.3174H583.602V32.2846ZM583.602 28.2887H582.578V26.2396H583.602V28.2887ZM583.602 24.2929H582.578V22.3257H583.602V24.2929ZM583.602 20.297H582.578V18.3298H583.602V20.297ZM583.602 16.3011H582.578V14.252H583.602V16.3011Z" fill="#EBEBEB"/>
<path d="M583.602 12.336H582.598V10.8401H584.104V11.8442H583.602V12.336Z" fill="#EBEBEB"/>
<path d="M652.013 11.8442H650.046V10.8196H652.044L652.013 11.8442ZM648.018 11.8442H646.02V10.8196H647.997L648.018 11.8442ZM644.032 11.8442H641.983V10.8196H644.032V11.8442ZM640.036 11.8442H637.987V10.8196H640.036V11.8442ZM636.04 11.8442H633.991V10.8196H636.04V11.8442ZM632.044 11.8442H630.046V10.8196H632.044V11.8442ZM628.049 11.8442H626.051V10.8196H628.049V11.8442ZM624.053 11.8442H622.003V10.8196H624.053V11.8442ZM620.057 11.8442H618.008V10.8196H620.057V11.8442ZM616.061 11.8442H614.012V10.8196H616.061V11.8442ZM612.065 11.8442H610.088V10.8196H612.086L612.065 11.8442ZM608.069 11.8442H606.071V10.8196H608.038L608.069 11.8442ZM604.073 11.8442H602.024V10.8196H604.073V11.8442ZM600.077 11.8442H598.028V10.8196H600.077V11.8442ZM596.082 11.8442H594.032V10.8196H596.082V11.8442ZM592.086 11.8442H590.098V10.8196H592.086V11.8442ZM588.1 11.8442H586.102V10.8196H588.1V11.8442Z" fill="#EBEBEB"/>
<path d="M655.518 12.336H654.513V11.8442H654.011V10.8401H655.518V12.336Z" fill="#EBEBEB"/>
<path d="M655.518 80.2248H654.493V78.1756H655.518V80.2248ZM655.518 76.2289H654.493V74.231H655.518V76.2289ZM655.518 72.2331H654.493V70.1839H655.518V72.2331ZM655.518 68.2372H654.493V66.188H655.518V68.2372ZM655.518 64.2413H654.493V62.1922H655.518V64.2413ZM655.518 60.2455H654.493V58.1963H655.518V60.2455ZM655.518 56.2496H654.493V54.2926H655.518V56.2496ZM655.518 52.264H654.493V50.2968H655.518V52.264ZM655.518 48.2681H654.493V46.2189H655.518V48.2681ZM655.518 44.2722H654.493V42.3153H655.518V44.2722ZM655.518 40.2763H654.493V38.2272H655.518V40.2763ZM655.518 36.2805H654.493V34.2313H655.518V36.2805ZM655.518 32.2846H654.493V30.3174H655.518V32.2846ZM655.518 28.2887H654.493V26.2396H655.518V28.2887ZM655.518 24.2929H654.493V22.3257H655.518V24.2929ZM655.518 20.297H654.493V18.3298H655.518V20.297ZM655.518 16.3011H654.493V14.252H655.518V16.3011Z" fill="#EBEBEB"/>
<path d="M587.588 78.7699H578.623V87.735H587.588V78.7699Z" fill="white"/>
<path d="M588.08 88.237H578.121V78.2679H588.08V88.237ZM579.125 87.2125H587.086V79.2515H579.125V87.2125Z" fill="#EBEBEB"/>
<path d="M587.618 42.8173H578.653V51.7824H587.618V42.8173Z" fill="white"/>
<path d="M588.08 52.2742H578.121V42.3153H588.08V52.2742ZM579.125 51.2496H587.086V43.3399H579.125V51.2496Z" fill="#EBEBEB"/>
<path d="M587.618 6.85446H578.653V15.8196H587.618V6.85446Z" fill="white"/>
<path d="M588.08 16.3216H578.121V6.36267H588.08V16.3216ZM579.125 15.297H587.086V7.35652H579.125V15.297Z" fill="#EBEBEB"/>
<path d="M659.534 78.7699H650.569V87.735H659.534V78.7699Z" fill="white"/>
<path d="M659.995 88.237H650.046V78.2679H660.005L659.995 88.237ZM651.03 87.2125H658.991V79.2515H651.071L651.03 87.2125Z" fill="#EBEBEB"/>
<path d="M659.534 42.8173H650.569V51.7824H659.534V42.8173Z" fill="white"/>
<path d="M659.995 52.2742H650.046V42.3153H660.005L659.995 52.2742ZM651.03 51.2496H658.991V43.3399H651.071L651.03 51.2496Z" fill="#EBEBEB"/>
<path d="M659.534 6.85446H650.569V15.8196H659.534V6.85446Z" fill="white"/>
<path d="M659.995 16.3216H650.046V6.36267H660.005L659.995 16.3216ZM651.03 15.297H658.991V7.35652H651.071L651.03 15.297Z" fill="#EBEBEB"/>
<path d="M623.581 6.85446H614.616V15.8196H623.581V6.85446Z" fill="white"/>
<path d="M624.042 16.3216H614.073V6.36267H624.042V16.3216ZM615.077 15.297H623.038V7.35652H615.077V15.297Z" fill="#EBEBEB"/>
<path d="M623.54 78.7699H614.575V87.735H623.54V78.7699Z" fill="white"/>
<path d="M624.042 88.237H614.073V78.2679H624.042V88.237ZM615.077 87.2125H623.038V79.2515H615.077V87.2125Z" fill="#EBEBEB"/>
<path d="M637.966 41.1677H636.788C633.448 31.0448 631.532 26.9465 625.907 26.9465H625.159V67.6634H630.415V68.9544H607.874V67.6532H613.13V26.9465H612.331C606.696 26.9465 604.596 31.5879 601.43 41.178H600.262L600.877 25.6453H637.393L637.966 41.1677Z" fill="#EBEBEB"/>
<path d="M22.6433 271.617C23.0021 271.972 23.2475 272.425 23.3485 272.92C23.4495 273.414 23.4016 273.928 23.2107 274.395C23.0198 274.862 22.6947 275.262 22.2763 275.545C21.858 275.827 21.3652 275.979 20.8605 275.981C20.1682 275.99 19.4997 275.729 18.9958 275.254L7.63314 263.717C7.58158 263.699 7.53562 263.668 7.49972 263.626C7.46382 263.585 7.43919 263.535 7.42822 263.482C7.39081 263.449 7.34951 263.422 7.30527 263.4C7.2541 263.295 7.21624 263.185 7.19257 263.072C7.16006 263.057 7.13179 263.034 7.11033 263.005C7.08886 262.977 7.07487 262.943 7.06962 262.908C7.06962 262.826 7.06962 262.713 6.98765 262.672C6.90568 262.631 6.90569 262.508 6.90569 262.467V262.18C6.90569 262.098 6.90569 262.057 6.90569 261.934C6.90569 261.811 6.90569 261.781 6.90569 261.74V261.453C6.90569 261.371 6.98765 261.33 6.98765 261.289C6.98765 261.248 6.98765 261.094 7.06962 260.971C7.15159 260.848 7.06962 260.971 7.06962 260.889C7.06962 260.807 7.19257 260.602 7.26429 260.521C7.26429 260.499 7.27293 260.478 7.2883 260.463C7.30367 260.447 7.32452 260.439 7.34626 260.439C7.40375 260.327 7.48831 260.232 7.59215 260.162L18.965 248.625C19.4566 248.157 20.1097 247.895 20.7888 247.895C21.4679 247.895 22.1209 248.157 22.6125 248.625C22.8514 248.864 23.0409 249.147 23.1701 249.459C23.2994 249.772 23.3659 250.106 23.3659 250.444C23.3659 250.782 23.2994 251.116 23.1701 251.428C23.0409 251.74 22.8514 252.024 22.6125 252.262L13.0122 261.934L22.6433 271.617Z" fill="#EBEBEB"/>
<path d="M32.9608 272.908L42.8788 249.342C42.9949 249.071 43.1634 248.825 43.3746 248.619C43.5858 248.413 43.8356 248.25 44.1097 248.141C44.3838 248.032 44.6768 247.977 44.972 247.981C45.2671 247.985 45.5585 248.047 45.8296 248.164C46.3615 248.396 46.7799 248.829 46.9931 249.369C47.2063 249.908 47.1968 250.51 46.9669 251.043L37.0489 274.68C36.8716 275.076 36.584 275.412 36.2205 275.648C35.8571 275.884 35.4332 276.011 34.9998 276.012C34.7223 276.016 34.447 275.964 34.1903 275.859C33.9099 275.753 33.654 275.592 33.4385 275.384C33.223 275.176 33.0523 274.926 32.9371 274.649C32.8219 274.373 32.7646 274.076 32.7687 273.776C32.7727 273.477 32.8382 273.181 32.9608 272.908Z" fill="#EBEBEB"/>
<path d="M6.53683 416.421L88.2678 416.329L169.999 416.288L333.45 416.216L496.902 416.288L578.633 416.319L660.364 416.421L578.633 416.523L496.902 416.554L333.45 416.626L169.999 416.554L88.2678 416.523L6.53683 416.421Z" fill="#263238"/>
<path d="M595.538 42.5201H69.3028V360.796H595.538V42.5201Z" fill="white"/>
<path d="M595.538 360.796L69.3027 361.186H68.9236V360.796L68.7904 42.5304V42.0181H69.3027L595.538 42.223H595.836V42.5304L595.538 360.796ZM595.538 360.796L595.241 42.5304L595.538 42.8275L69.3027 43.0324L69.815 42.5304L69.6818 360.796L69.3027 360.417L595.538 360.796Z" fill="#C7C7C7"/>
<path d="M595.538 42.5201H69.3028V94.3743H595.538V42.5201Z" fill="url(#paint0_linear_58_790)"/>
<path d="M101.956 76.2187H91.1366V78.0219H101.956V76.2187Z" fill="white"/>
<path d="M101.956 84.3129H91.1366V86.1161H101.956V84.3129Z" fill="white"/>
<path d="M101.956 80.317H91.1366V82.1203H101.956V80.317Z" fill="white"/>
<path opacity="0.1" d="M573.694 76.0649H472.25V86.28H573.694V76.0649Z" fill="black"/>
<path d="M573.694 76.0649H563.479V86.28H573.694V76.0649Z" fill="white"/>
<path d="M571.83 84.0362L570.887 84.7534L569.104 82.4379L568.459 81.5977C568.59 81.5458 568.714 81.4769 568.828 81.3928C569.045 81.2281 569.214 81.0089 569.319 80.7576L569.996 81.6592L571.83 84.0362Z" fill="#FF00FF"/>
<path d="M569.965 78.5957C569.666 78.2076 569.261 77.9132 568.8 77.7471C568.339 77.581 567.84 77.5501 567.362 77.6581C566.884 77.7662 566.447 78.0085 566.102 78.3568C565.757 78.705 565.519 79.1445 565.415 79.6236C565.312 80.1027 565.347 80.6014 565.518 81.061C565.688 81.5205 565.986 81.9218 566.377 82.2175C566.768 82.5133 567.235 82.6911 567.724 82.7301C568.212 82.7692 568.702 82.6678 569.135 82.4379C569.26 82.3725 569.38 82.2972 569.494 82.2125C569.697 82.0542 569.876 81.8679 570.026 81.6592C570.345 81.2089 570.51 80.6686 570.499 80.1173C570.488 79.5661 570.301 79.0329 569.965 78.5957ZM568.858 81.3928C568.745 81.4769 568.621 81.5458 568.49 81.5977C568.143 81.7423 567.755 81.755 567.4 81.6335C567.045 81.5119 566.746 81.2645 566.561 80.938C566.376 80.6114 566.316 80.2283 566.394 79.8609C566.472 79.4936 566.682 79.1674 566.983 78.9441C567.301 78.7034 567.7 78.5956 568.096 78.6434C568.491 78.6912 568.853 78.8908 569.104 79.2002C569.229 79.3602 569.321 79.5435 569.375 79.7395C569.428 79.9354 569.442 80.1401 569.415 80.3414C569.388 80.5427 569.322 80.7367 569.219 80.912C569.116 81.0872 568.98 81.2402 568.817 81.3621L568.858 81.3928Z" fill="#FF00FF"/>
<path d="M474.945 78.0732H474.392V84.2719H474.945V78.0732Z" fill="white"/>
<path d="M191.689 86.6284H142.058V75.7064H191.689V86.6284ZM143.083 85.6039H190.665V76.731H143.083V85.6039Z" fill="white"/>
<path d="M250.971 86.6284H201.341V75.7064H250.971V86.6284ZM202.365 85.6039H249.947V76.731H202.365V85.6039Z" fill="white"/>
<path opacity="0.1" d="M309.741 76.2187H261.135V86.1264H309.741V76.2187Z" fill="black"/>
<path d="M369.536 86.6284H319.905V75.7064H369.536V86.6284ZM320.93 85.6039H368.512V76.731H320.93V85.6039Z" fill="white"/>
<path d="M428.818 86.6284H379.188V75.7064H428.818V86.6284ZM380.212 85.6039H427.794V76.731H380.212V85.6039Z" fill="white"/>
<path d="M595.538 42.5201H69.3028V50.7578H595.538V42.5201Z" fill="#37474F"/>
<path d="M75.8498 46.639C75.8498 47.0443 75.7296 47.4405 75.5045 47.7775C75.2793 48.1144 74.9593 48.3771 74.5848 48.5322C74.2104 48.6873 73.7984 48.7279 73.4009 48.6488C73.0034 48.5697 72.6382 48.3746 72.3517 48.088C72.0651 47.8014 71.8699 47.4363 71.7909 47.0388C71.7118 46.6413 71.7524 46.2293 71.9075 45.8548C72.0626 45.4804 72.3252 45.1604 72.6622 44.9352C72.9992 44.71 73.3954 44.5898 73.8006 44.5898C74.3441 44.5898 74.8653 44.8057 75.2496 45.19C75.6339 45.5743 75.8498 46.0955 75.8498 46.639Z" fill="#C7C7C7"/>
<path d="M84.1899 46.639C84.1899 47.0443 84.0697 47.4405 83.8446 47.7775C83.6194 48.1144 83.2994 48.3771 82.9249 48.5322C82.5505 48.6873 82.1385 48.7279 81.741 48.6488C81.3435 48.5697 80.9784 48.3746 80.6918 48.088C80.4052 47.8014 80.21 47.4363 80.131 47.0388C80.0519 46.6413 80.0925 46.2293 80.2476 45.8548C80.4027 45.4804 80.6653 45.1604 81.0023 44.9352C81.3393 44.71 81.7355 44.5898 82.1408 44.5898C82.6842 44.5898 83.2055 44.8057 83.5897 45.19C83.974 45.5743 84.1899 46.0955 84.1899 46.639Z" fill="white"/>
<path d="M92.53 46.639C92.53 47.0443 92.4098 47.4405 92.1846 47.7775C91.9595 48.1144 91.6394 48.3771 91.265 48.5322C90.8906 48.6873 90.4786 48.7279 90.0811 48.6488C89.6836 48.5697 89.3184 48.3746 89.0318 48.088C88.7453 47.8014 88.5501 47.4363 88.471 47.0388C88.392 46.6413 88.4325 46.2293 88.5876 45.8548C88.7427 45.4804 89.0054 45.1604 89.3424 44.9352C89.6794 44.71 90.0755 44.5898 90.4808 44.5898C91.0243 44.5898 91.5455 44.8057 91.9298 45.19C92.3141 45.5743 92.53 46.0955 92.53 46.639Z" fill="#FF00FF"/>
<path d="M595.528 94.3845H586.491V360.807H595.528V94.3845Z" fill="#DBDBDB"/>
<path d="M591.01 186.781C590.721 186.802 590.432 186.766 590.158 186.674C589.884 186.582 589.631 186.436 589.413 186.245C589.196 186.055 589.019 185.823 588.892 185.563C588.765 185.303 588.691 185.021 588.674 184.732V97.9501C588.692 97.6619 588.767 97.3802 588.894 97.1211C589.022 96.862 589.199 96.6306 589.416 96.4402C589.633 96.2498 589.886 96.1042 590.159 96.0116C590.433 95.9191 590.722 95.8815 591.01 95.9009C591.298 95.8815 591.587 95.9191 591.86 96.0116C592.134 96.1042 592.387 96.2498 592.604 96.4402C592.821 96.6306 592.998 96.862 593.125 97.1211C593.253 97.3802 593.328 97.6619 593.346 97.9501V184.732C593.329 185.021 593.255 185.303 593.128 185.563C593.001 185.823 592.824 186.055 592.606 186.245C592.389 186.436 592.136 186.582 591.862 186.674C591.588 186.766 591.298 186.802 591.01 186.781Z" fill="#A6A6A6"/>
<path d="M91.3313 107.243V146.29H130.378V107.243H91.3313ZM94.2821 143.339V110.194H127.427V143.339H94.2821Z" fill="#EBEBEB"/>
<path d="M282.303 113.811H262.969V133.134H282.303V113.811Z" fill="#FF00FF"/>
<path d="M451.134 113.811H431.8V133.134H451.134V113.811Z" fill="#9134FF"/>
<path d="M109.139 212.693H89.8047V232.017H109.139V212.693Z" fill="#0000FF"/>
<path d="M543.951 312.344V351.391H582.998V312.344H543.951ZM546.902 348.44V315.295H580.047V348.44H546.902Z" fill="#EBEBEB"/>
<path d="M167.212 222.355H99.4767V235.019H167.212V222.355Z" fill="#455A64"/>
<path d="M285.602 241.269H99.4767V246.002H285.602V241.269Z" fill="#DBDBDB"/>
<path d="M285.602 251.678H99.4767V256.412H285.602V251.678Z" fill="#DBDBDB"/>
<path d="M285.602 262.088H99.4767V266.822H285.602V262.088Z" fill="#DBDBDB"/>
<path d="M285.602 272.498H99.4767V277.231H285.602V272.498Z" fill="#DBDBDB"/>
<path d="M285.602 282.918H99.4767V287.651H285.602V282.918Z" fill="#DBDBDB"/>
<path d="M340.366 123.472H272.631V136.136H340.366V123.472Z" fill="#455A64"/>
<path d="M411.8 144.866H272.631V149.599H411.8V144.866Z" fill="#DBDBDB"/>
<path d="M411.8 155.275H272.631V160.009H411.8V155.275Z" fill="#DBDBDB"/>
<path d="M411.8 165.685H272.631V170.419H411.8V165.685Z" fill="#DBDBDB"/>
<path d="M411.8 176.105H272.631V180.839H411.8V176.105Z" fill="#DBDBDB"/>
<path d="M411.8 189.947H272.631V194.681H411.8V189.947Z" fill="#DBDBDB"/>
<path d="M411.8 200.367H272.631V205.101H411.8V200.367Z" fill="#DBDBDB"/>
<path d="M565.334 123.472H441.462V136.362H565.334V123.472Z" fill="#455A64"/>
<path d="M565.026 136.474H441.81V338.553H565.026V136.474Z" fill="white"/>
<path d="M565.365 338.881H441.462V136.136H565.365V338.881ZM442.148 338.215H564.678V136.802H442.148V338.215Z" fill="#DBDBDB"/>
<path d="M442.128 338.676L441.482 338.42L564.699 136.351L565.334 136.597L442.128 338.676Z" fill="#DBDBDB"/>
<path d="M564.699 338.676L441.482 136.597L442.128 136.351L565.334 338.42L564.699 338.676Z" fill="#DBDBDB"/>
<path d="M192.181 123.698H44.5488V204.875H192.181V123.698Z" fill="white"/>
<path d="M44.3234 205.101V204.896V123.513H44.5181H192.396V205.101H192.15H44.3234ZM44.7845 123.923V204.681H191.915V123.913L44.7845 123.923Z" fill="#DBDBDB"/>
<path d="M44.7845 123.923C57.2024 130.429 69.5384 137.089 81.8641 143.749L118.749 163.82L155.45 184.107L173.738 194.353L191.945 204.681L173.37 194.824L154.866 184.835L117.981 164.763L81.2904 144.466C69.1081 137.663 56.895 130.849 44.7845 123.923Z" fill="#DBDBDB"/>
<path d="M191.945 123.923C179.845 130.849 167.652 137.663 155.45 144.415L118.749 164.712L81.8642 184.783L63.4217 194.742L44.8358 204.599L62.9606 194.322L81.2494 184.076L117.95 163.79L154.835 143.718C167.191 137.089 179.527 130.429 191.945 123.923Z" fill="#DBDBDB"/>
<path d="M116.813 320.725V377.804H418.05V320.725H116.813Z" fill="white"/>
<path d="M418.542 320.561V377.938H116.29V320.561H418.542ZM417.517 377.651V320.879H117.263V377.651H417.517Z" fill="#FF00FF"/>
<path d="M418.235 377.661L417.855 377.948L116.628 320.868L116.997 320.571L418.235 377.661Z" fill="#FF00FF"/>
<path d="M418.235 320.868L116.997 377.948L116.628 377.661L417.855 320.571L418.235 320.868Z" fill="#FF00FF"/>
<path d="M60.3069 332.344C67.3663 317.836 79.7125 310.387 93.6366 314.506C107.561 318.625 109.702 338.071 99.3127 342.928C88.9235 347.784 78.5342 333.522 73.0527 330.633C67.5712 327.743 60.3069 332.344 60.3069 332.344Z" fill="#9134FF"/>
<path d="M53.4729 370.95C53.4729 369.208 53.5857 367.456 53.6471 365.714C53.7701 362.221 53.8828 358.727 54.016 355.233C54.2516 348.85 54.9381 342.579 57.5815 336.698C59.918 331.361 63.8241 326.862 68.7802 323.799C70.6154 322.687 72.5941 321.832 74.6613 321.258C76.536 319.363 78.9209 318.053 81.526 317.487C84.7508 316.827 88.0672 316.744 91.321 317.241C91.4337 317.241 91.4337 317.436 91.321 317.426C88.2341 317.034 85.1001 317.256 82.0998 318.082C80.8064 318.436 79.5532 318.924 78.3601 319.537C77.6112 319.939 76.8921 320.394 76.2084 320.899C79.0167 320.322 81.9158 320.35 84.7125 320.981C85.7199 321.228 86.7065 321.554 87.6633 321.955C88.4233 321.789 89.2018 321.723 89.9788 321.76C90.9958 321.79 92.0062 321.935 92.9911 322.19C95.0067 322.754 96.9343 323.596 98.7185 324.69C98.7318 324.694 98.744 324.701 98.7542 324.711C98.7644 324.721 98.7722 324.732 98.7772 324.745C98.7822 324.758 98.7841 324.772 98.7829 324.786C98.7817 324.8 98.7773 324.814 98.7701 324.826C98.7629 324.838 98.7531 324.848 98.7414 324.855C98.7297 324.863 98.7165 324.868 98.7026 324.87C98.6888 324.871 98.6747 324.87 98.6615 324.866C98.6483 324.861 98.6362 324.854 98.6263 324.844C96.8687 323.886 94.9857 323.179 93.0321 322.744C92.0887 322.526 91.1293 322.386 90.1632 322.323C89.6309 322.293 89.0972 322.293 88.5649 322.323C92.5303 324.152 95.7181 327.329 97.5607 331.289C97.612 331.401 97.448 331.493 97.407 331.381C96.3115 329.079 94.7106 327.055 92.7237 325.458C90.7368 323.861 88.4151 322.734 85.9317 322.159C85.6243 322.078 85.317 322.037 85.0096 321.975C85.1121 322.426 85.0916 322.938 85.153 323.379C85.2452 324.086 85.3682 324.782 85.5116 325.489C85.7992 326.925 86.1756 328.342 86.6387 329.731C87.1109 331.133 87.6757 332.502 88.3292 333.829C88.9544 335.241 89.7418 336.575 90.6755 337.805C90.7677 337.897 90.6038 338.02 90.5321 337.907C89.6919 336.596 88.7186 335.387 87.9604 334.034C87.2272 332.719 86.5969 331.349 86.0752 329.936C85.5396 328.526 85.1249 327.072 84.8354 325.592C84.6817 324.813 84.5588 324.024 84.4666 323.235C84.3744 322.76 84.3434 322.274 84.3743 321.791C82.7392 321.547 81.0797 321.513 79.4359 321.688C80.0506 325.151 80.7166 328.758 82.6531 331.76C82.7145 331.862 82.5506 331.954 82.4891 331.852C81.5869 330.256 80.7894 328.603 80.1018 326.903C79.4647 325.261 79.0645 323.536 78.9133 321.78C76.0315 322.161 73.2492 323.089 70.7167 324.516C65.9641 327.287 62.1686 331.44 59.8356 336.422C57.3658 341.808 55.9902 347.631 55.7885 353.553C55.3274 360.96 55.225 368.419 54.4873 375.817C54.4873 376.298 53.6676 376.462 53.5754 375.919C53.3875 374.27 53.3532 372.606 53.4729 370.95Z" fill="#263238"/>
<path d="M69.7843 322.631C70.2523 322.069 70.7933 321.573 71.3929 321.155C71.966 320.67 72.5645 320.215 73.1859 319.793C74.4063 318.949 75.7609 318.319 77.192 317.928C77.2165 317.928 77.24 317.938 77.2572 317.955C77.2745 317.972 77.2843 317.996 77.2843 318.02C77.2843 318.045 77.2745 318.068 77.2572 318.085C77.24 318.103 77.2165 318.112 77.192 318.112C75.7524 318.473 74.4048 319.133 73.2372 320.049C72.6429 320.489 72.0794 320.951 71.5261 321.432C71.035 321.944 70.4926 322.404 69.9073 322.805C69.8857 322.807 69.8641 322.803 69.8444 322.794C69.8248 322.785 69.8079 322.771 69.7954 322.753C69.7829 322.736 69.7753 322.715 69.7734 322.694C69.7714 322.672 69.7752 322.65 69.7843 322.631Z" fill="#263238"/>
<path d="M92.3046 327.887C93.4711 329.246 94.5524 330.677 95.5423 332.17C96.5104 333.672 97.3174 335.273 97.9501 336.944C97.9501 336.995 97.8886 337.026 97.8681 336.944C96.2515 333.789 94.3444 330.791 92.1714 327.989C92.0997 327.928 92.2329 327.795 92.3046 327.887Z" fill="#263238"/>
<path d="M77.1305 326.453C77.2778 327.358 77.543 328.239 77.9195 329.075C78.312 329.883 78.764 330.661 79.2719 331.401C79.2719 331.452 79.2719 331.504 79.19 331.463C77.9678 330.064 77.187 328.335 76.9461 326.493C76.9256 326.381 77.1101 326.34 77.1305 326.453Z" fill="#263238"/>
<path d="M54.4566 332.702C54.4566 332.702 44.5181 320.141 25.1842 324.588C6.85447 328.819 -1.60858 362.436 16.9159 366.462C35.4403 370.489 32.2231 339.372 38.9239 334.096C43.8726 330.223 51.0037 331.053 54.4566 332.702Z" fill="#9134FF"/>
<path d="M10.2868 342.948C11.5429 341.837 12.871 340.811 14.2622 339.875C15.572 338.982 16.9951 338.269 18.4937 337.754C19.2487 336.614 20.0914 335.535 21.0142 334.526C22.7126 332.694 24.6781 331.129 26.8441 329.885H26.2703C25.2464 329.834 24.2205 329.834 23.1966 329.885C21.1391 330.018 19.1225 330.521 17.2437 331.371C17.1413 331.422 17.0593 331.248 17.172 331.196C19.0784 330.377 21.0722 329.779 23.1146 329.414C24.1091 329.238 25.117 329.148 26.1269 329.147C26.6596 329.147 27.1514 329.147 27.7457 329.25H28.0531C29.8229 328.356 31.6897 327.668 33.6166 327.2L33.0735 327.057C32.1309 326.842 31.1781 326.709 30.2149 326.586C28.2961 326.37 26.3576 326.401 24.4466 326.678C24.4221 326.678 24.3986 326.668 24.3813 326.651C24.364 326.634 24.3543 326.61 24.3543 326.586C24.3543 326.561 24.364 326.538 24.3813 326.52C24.3986 326.503 24.4221 326.493 24.4466 326.493C26.3806 326.261 28.33 326.183 30.2764 326.258C31.9124 326.307 33.5393 326.52 35.1329 326.893C36.2934 326.677 37.4678 326.543 38.6473 326.493C45.3378 326.248 52.7148 328.758 56.8131 334.321C60.9114 339.885 61.7618 347.231 62.4893 353.901C63.6207 363.201 63.8677 372.587 63.227 381.934C63.227 382.487 62.4073 382.384 62.3971 381.862C62.1409 373.942 61.8643 366.012 61.1061 358.112C60.7578 354.454 60.3684 350.786 59.7537 347.159C59.3106 344.041 58.4167 341.004 57.1 338.143C55.6649 335.219 53.3979 332.785 50.5836 331.145C47.76 329.523 44.6093 328.554 41.3624 328.307C38.4547 328.066 35.5274 328.34 32.7149 329.116C32.797 329.684 32.797 330.26 32.7149 330.827C32.6526 331.542 32.5082 332.247 32.2846 332.928C32.0738 333.575 31.8064 334.203 31.4854 334.803C31.1268 335.459 30.676 336.053 30.2764 336.688C30.2149 336.791 30.051 336.688 30.133 336.586C30.9195 335.452 31.4316 334.15 31.6289 332.784C31.7444 332.134 31.8197 331.477 31.8543 330.817C31.8543 330.315 31.8543 329.793 31.8543 329.321C28.7918 330.26 25.9343 331.768 23.4322 333.768C22.9609 334.147 22.5101 334.536 22.0695 334.946C22.7054 335.55 23.2537 336.24 23.6986 336.995C24.362 337.967 24.938 338.996 25.4199 340.069C26.3094 342.217 26.9089 344.474 27.2027 346.78C27.2027 346.805 27.193 346.828 27.1757 346.845C27.1584 346.863 27.1349 346.872 27.1105 346.872C27.086 346.872 27.0625 346.863 27.0453 346.845C27.028 346.828 27.0182 346.805 27.0182 346.78C26.665 344.551 25.9229 342.401 24.8256 340.428C24.3168 339.449 23.7452 338.505 23.1146 337.6C22.7867 337.139 22.4486 336.678 22.09 336.237C21.9056 335.991 21.7007 335.756 21.5162 335.5C19.247 337.717 17.3939 340.323 16.045 343.194C16.9578 344.155 17.7179 345.251 18.2991 346.442C18.9941 347.685 19.6001 348.976 20.1126 350.305C21.0403 352.874 21.8068 355.499 22.4076 358.163C22.4076 358.276 22.2539 358.317 22.2334 358.163C21.6458 355.481 20.7269 352.883 19.4978 350.428C18.9138 349.208 18.3093 348.02 17.6638 346.852C16.9947 345.766 16.3925 344.64 15.8605 343.481C14.6142 346.299 13.9087 349.326 13.7806 352.405C13.7806 352.43 13.7709 352.453 13.7536 352.47C13.7363 352.488 13.7129 352.497 13.6884 352.497C13.664 352.497 13.6405 352.488 13.6232 352.47C13.6059 352.453 13.5962 352.43 13.5962 352.405C13.9344 347.557 15.401 342.856 17.879 338.676C16.7007 339.178 15.5224 339.7 14.3851 340.274C12.9365 341.041 11.5905 341.988 10.379 343.092C10.3176 343.174 10.1946 343.03 10.2868 342.948Z" fill="#263238"/>
<path d="M24.4363 343.665C25.0101 345.571 25.7375 347.415 26.2601 349.342C26.793 351.184 27.079 353.09 27.1105 355.008C27.1105 355.059 27.0285 355.059 27.0182 355.008C26.4947 351.165 25.571 347.388 24.2621 343.737C24.2574 343.726 24.255 343.713 24.255 343.701C24.255 343.689 24.2575 343.676 24.2623 343.665C24.267 343.654 24.274 343.643 24.2827 343.635C24.2915 343.626 24.3019 343.619 24.3133 343.614C24.3248 343.609 24.337 343.607 24.3494 343.607C24.3618 343.607 24.374 343.61 24.3854 343.614C24.3968 343.619 24.4072 343.626 24.4159 343.635C24.4247 343.644 24.4316 343.654 24.4363 343.665Z" fill="#263238"/>
<path d="M12.213 338.942C12.9812 338.208 13.855 337.594 14.8052 337.118C15.7621 336.695 16.7525 336.353 17.7663 336.094C17.879 336.094 17.9199 336.258 17.7663 336.278C16.7698 336.527 15.8092 336.903 14.9077 337.395C13.9969 337.867 13.1234 338.409 12.295 339.014C12.2335 339.075 12.1618 338.993 12.213 338.942Z" fill="#263238"/>
<path d="M44.9689 315.93C44.9689 315.93 43.1247 293.389 26.342 286.053C12.336 279.906 4.32376 295.684 14.2212 305.315C22.2335 313.112 35.0817 309.598 44.9689 315.93Z" fill="#9134FF"/>
<path d="M17.3257 290.418C19.8785 291.45 22.3691 292.631 24.7846 293.953C26.7925 295.111 28.7259 296.395 30.5735 297.795C30.2969 297.231 30.0612 296.627 29.7743 296.074C29.3338 295.203 28.8727 294.352 28.3502 293.522C27.3191 291.815 26.0763 290.246 24.6514 288.85C24.5695 288.768 24.6514 288.635 24.7846 288.717C26.2045 290.117 27.5067 291.632 28.678 293.246C29.2573 294.066 29.7909 294.918 30.2764 295.797C30.7682 296.609 31.1474 297.485 31.4034 298.399L31.5878 298.533C34.5177 300.867 37.2023 303.493 39.6001 306.371C39.5454 306.145 39.4942 305.93 39.4464 305.725C39.1288 304.619 38.7907 303.533 38.4218 302.447C37.6873 300.13 36.654 297.919 35.3481 295.869C35.2866 295.766 35.4505 295.674 35.512 295.776C36.8312 297.828 38.0022 299.972 39.0161 302.19C39.4871 303.272 39.8742 304.389 40.1739 305.53C40.4182 306.269 40.6032 307.027 40.7271 307.795C41.4546 308.717 42.1718 309.66 42.848 310.623C50.0201 320.868 53.6676 333.266 54.5282 345.674C54.7878 349.373 54.8528 353.084 54.7229 356.79C54.6796 360.528 54.337 364.255 53.6983 367.938C53.6983 368.173 53.2885 368.102 53.2885 367.876C53.3705 364.618 53.7086 361.37 53.7701 358.112C53.8316 354.844 53.729 351.575 53.4627 348.317C52.9279 341.805 51.7017 335.369 49.8049 329.116C47.8516 322.719 44.9765 316.641 41.2702 311.073C40.5632 310.93 39.8665 310.735 39.221 310.561C38.5755 310.387 37.5407 310.131 36.7108 309.895C35.1009 309.48 33.5359 308.907 32.0387 308.184C32.0169 308.172 32.0009 308.152 31.9942 308.128C31.9875 308.104 31.9906 308.078 32.0028 308.056C32.015 308.034 32.0354 308.018 32.0594 308.012C32.0834 308.005 32.1091 308.008 32.1309 308.02C33.6089 308.829 35.2126 309.383 36.8747 309.66C38.1862 309.926 39.5489 310.09 40.8706 310.397C39.6513 308.625 38.3501 306.903 36.9669 305.274C33.7667 305.568 30.5399 305.329 27.4178 304.567C25.7604 304.166 24.1313 303.656 22.5408 303.041C20.8605 302.395 19.2724 301.565 17.6125 300.869C17.4896 300.869 17.6125 300.633 17.6843 300.705C20.6877 302.342 23.9659 303.415 27.3563 303.871C30.3486 304.35 33.3731 304.6 36.4034 304.619C35.2149 303.256 33.9854 301.924 32.6739 300.674C28.2682 296.473 23.0326 292.621 17.2335 290.613C17.1617 290.561 17.2232 290.377 17.3257 290.418Z" fill="#263238"/>
<path d="M30.9732 290.49C31.728 291.443 32.4128 292.45 33.0223 293.502C33.6517 294.604 34.1471 295.776 34.4977 296.996H34.4363C33.8727 295.889 33.4117 294.742 32.8379 293.635C32.2711 292.538 31.5838 291.507 30.7887 290.561C30.7682 290.531 30.9014 290.397 30.9732 290.49Z" fill="#263238"/>
<path d="M15.379 298C16.4691 298.606 17.6239 299.087 18.8216 299.434C19.966 299.819 21.1328 300.134 22.3154 300.377C22.3769 300.377 22.3154 300.479 22.3154 300.479C21.0807 300.347 19.8643 300.079 18.6884 299.68C17.529 299.242 16.3966 298.736 15.297 298.164C15.1741 298.112 15.2765 297.938 15.379 298Z" fill="#263238"/>
<path d="M58.0016 311.862C58.1041 312.836 60.5426 303.666 74.7228 295.541C87.6018 288.143 102.971 268.902 90.3477 256.781C80.1531 246.986 53.2988 268.348 58.0016 311.862Z" fill="#9134FF"/>
<path d="M48.2373 364.413C48.4503 354.874 49.2029 345.354 50.4914 335.899C51.6131 327.209 53.6215 318.657 56.4852 310.377C57.5098 307.395 58.7393 304.455 60.0508 301.565C59.9786 300.442 59.9992 299.315 60.1122 298.194C60.184 296.75 60.3069 295.305 60.4401 293.871C60.5733 292.436 60.727 290.992 60.8909 289.557C61.0549 288.123 61.3725 286.688 61.4339 285.254C61.4339 285.121 61.6389 285.152 61.6081 285.254C61.3246 286.759 61.1533 288.283 61.0958 289.813C60.9934 291.207 60.9114 292.6 60.8704 293.994C60.8294 295.387 60.8704 296.791 60.8704 298.184C60.8704 298.686 60.8704 299.209 60.8704 299.762C62.2024 296.944 63.6368 294.168 65.1839 291.463C64.2208 285.582 65.4606 279.434 66.6696 273.686C66.6696 273.574 66.8642 273.625 66.8437 273.686C66.2522 276.691 65.9401 279.743 65.9114 282.805C65.8499 285.213 65.9114 287.631 65.9728 290.049L66.9974 288.318C68.8348 285.312 70.7986 282.378 72.8888 279.516C72.7179 278.121 72.7628 276.708 73.022 275.326C73.2552 273.777 73.5975 272.247 74.0466 270.746C74.5076 269.24 75.0711 267.764 75.6244 266.32C76.1777 264.875 77.0588 263.42 77.6736 261.924C77.6783 261.913 77.6852 261.902 77.6939 261.894C77.7027 261.885 77.713 261.878 77.7244 261.873C77.7359 261.868 77.7481 261.866 77.7605 261.866C77.7728 261.866 77.7851 261.868 77.7965 261.873C77.808 261.878 77.8184 261.885 77.8271 261.893C77.8359 261.902 77.8428 261.912 77.8476 261.924C77.8524 261.935 77.8548 261.948 77.8548 261.96C77.8549 261.972 77.8525 261.985 77.8478 261.996C77.0893 263.407 76.4914 264.899 76.065 266.443C75.5976 267.892 75.2111 269.366 74.9072 270.859C74.6101 272.344 74.3642 273.84 74.149 275.357C74.0158 276.381 73.9236 277.406 73.7494 278.43C76.786 274.352 80.1071 270.493 83.6879 266.883C83.7698 266.791 83.8928 266.883 83.8108 267.016C78.4028 273.088 73.5763 279.654 69.3949 286.627L68.9339 287.416C69.7126 286.924 70.6142 286.535 71.3519 286.125C72.718 285.367 74.0841 284.612 75.4502 283.861C76.8027 283.133 78.1346 282.395 79.4768 281.658C80.1633 281.279 80.8395 280.879 81.526 280.52C82.3669 280.15 83.1728 279.704 83.9338 279.189C83.9542 279.175 83.9791 279.17 84.0031 279.175C84.015 279.177 84.0263 279.182 84.0364 279.189C84.0465 279.195 84.0551 279.204 84.0618 279.214C84.0686 279.224 84.0732 279.236 84.0756 279.247C84.078 279.259 84.0779 279.272 84.0756 279.283C84.0732 279.295 84.0685 279.307 84.0617 279.317C84.055 279.327 84.0463 279.335 84.0362 279.342C82.6735 280.09 81.4645 281.207 80.1531 282.047C78.8416 282.887 77.4789 283.707 76.0547 284.475C73.5343 285.879 70.7986 286.893 68.3191 288.348C66.5978 291.361 65.0097 294.496 63.5446 297.57C65.0473 296.606 66.5842 295.688 68.1552 294.813C69.1798 294.25 70.2044 293.697 71.2289 293.154C72.2407 292.69 73.1963 292.112 74.0773 291.432C74.1695 291.361 74.2925 291.483 74.2105 291.565C72.5554 293.047 70.7248 294.32 68.7597 295.356C66.936 296.381 65.1019 297.406 63.2065 298.379C61.6901 301.699 60.324 305.083 59.1081 308.533C53.1348 325.428 50.9115 343.368 49.8869 361.196C49.5795 366.503 49.4156 371.821 49.3439 377.139C49.2721 382.456 49.559 387.763 49.5488 393.071C49.5488 393.225 49.2926 393.266 49.2721 393.071C48.6369 388.358 48.5242 383.563 48.3193 378.819C48.1144 374.075 48.1349 369.249 48.2373 364.413Z" fill="#263238"/>
<path d="M74.0056 287.898C76.5979 286.754 79.1164 285.45 81.5465 283.994C84.0171 282.611 86.4113 281.096 88.7186 279.455C88.7186 279.455 88.8006 279.455 88.7186 279.527C86.5411 281.283 84.2439 282.885 81.8437 284.322C79.3335 285.732 76.7361 286.981 74.0671 288.061C73.9851 288.102 73.9032 287.938 74.0056 287.898Z" fill="#263238"/>
<path d="M69.897 268.748C70.1122 267.918 70.3683 267.109 70.6449 266.309C70.6341 266.297 70.6282 266.28 70.6282 266.263C70.6282 266.247 70.6341 266.23 70.6449 266.217C70.8191 265.756 71.0138 265.305 71.1982 264.855C71.2153 264.799 71.2358 264.744 71.2597 264.691L71.3724 264.424C71.3724 264.424 71.2802 264.732 71.2392 264.896C71.1982 265.059 71.2392 265.059 71.1572 265.152C70.2333 268.344 69.5483 271.601 69.1081 274.895C69.1081 274.998 68.9339 274.998 68.9441 274.895C69.0662 272.821 69.3852 270.762 69.897 268.748Z" fill="#263238"/>
<path d="M33.2579 367.846L34.2723 379.843L37.3665 416.421H70.5527L73.647 379.843L74.6613 367.846H33.2579Z" fill="#455A64"/>
<path d="M33.2579 367.846L34.2723 379.843H73.647L74.6613 367.846H33.2579Z" fill="#263238"/>
<path d="M29.9998 374.536H77.9195V363.03H29.9998V374.536Z" fill="#455A64"/>
<path d="M307.631 287.979H407.138V224.589H307.631V287.979Z" fill="#FF00FF"/>
<path d="M303.399 293.82H301.606V292.026H302.119V293.307H303.399V293.82Z" fill="#263238"/>
<path d="M408.245 293.82H405.171V293.338H408.245V293.82ZM402.097 293.82H399.024V293.338H402.097V293.82ZM395.95 293.82H392.876V293.338H395.95V293.82ZM389.802 293.82H386.729V293.338H389.802V293.82ZM383.655 293.82H380.581V293.338H383.655V293.82ZM377.507 293.82H374.434V293.338H377.507V293.82ZM371.36 293.82H368.286V293.338H371.36V293.82ZM365.212 293.82H362.139V293.338H365.212V293.82ZM359.065 293.82H355.991V293.338H359.065V293.82ZM352.917 293.82H349.844V293.338H352.917V293.82ZM346.77 293.82H343.696V293.338H346.77V293.82ZM340.622 293.82H337.549V293.338H340.622V293.82ZM334.475 293.82H331.401V293.338H334.475V293.82ZM328.327 293.82H325.254V293.338H328.327V293.82ZM322.18 293.82H319.106V293.338H322.18V293.82ZM316.032 293.82H312.959V293.338H316.032V293.82ZM309.885 293.82H306.811V293.338H309.885V293.82Z" fill="#263238"/>
<path d="M413.163 293.82H411.37V293.307H412.651V292.026H413.163V293.82Z" fill="#263238"/>
<path d="M413.163 288.922H412.651V285.848H413.163V288.922ZM413.163 282.703H412.651V279.629H413.163V282.703ZM413.163 276.484H412.651V273.41H413.163V276.484ZM413.163 270.275H412.651V267.201H413.163V270.275ZM413.163 264.055H412.651V260.982H413.163V264.055ZM413.163 257.836H412.651V254.762H413.163V257.836ZM413.163 251.617H412.651V248.543H413.163V251.617ZM413.163 245.398H412.651V242.324H413.163V245.398ZM413.163 239.189H412.651V236.115H413.163V239.189ZM413.163 232.97H412.651V229.896H413.163V232.97ZM413.163 226.75H412.651V223.677H413.163V226.75Z" fill="#263238"/>
<path d="M413.163 220.531H412.651V219.25H411.37V218.738H413.163V220.531Z" fill="#263238"/>
<path d="M408.245 219.25H405.171V218.738H408.245V219.25ZM402.097 219.25H399.024V218.738H402.097V219.25ZM395.95 219.25H392.876V218.738H395.95V219.25ZM389.802 219.25H386.729V218.738H389.802V219.25ZM383.655 219.25H380.581V218.738H383.655V219.25ZM377.507 219.25H374.434V218.738H377.507V219.25ZM371.36 219.25H368.286V218.738H371.36V219.25ZM365.212 219.25H362.139V218.738H365.212V219.25ZM359.065 219.25H355.991V218.738H359.065V219.25ZM352.917 219.25H349.844V218.738H352.917V219.25ZM346.77 219.25H343.696V218.738H346.77V219.25ZM340.622 219.25H337.549V218.738H340.622V219.25ZM334.475 219.25H331.401V218.738H334.475V219.25ZM328.327 219.25H325.254V218.738H328.327V219.25ZM322.18 219.25H319.106V218.738H322.18V219.25ZM316.032 219.25H312.959V218.738H316.032V219.25ZM309.885 219.25H306.811V218.738H309.885V219.25Z" fill="#263238"/>
<path d="M302.119 220.531H301.606V218.738H303.399V219.25H302.119V220.531Z" fill="#263238"/>
<path d="M302.119 288.922H301.606V285.848H302.119V288.922ZM302.119 282.703H301.606V279.629H302.119V282.703ZM302.119 276.484H301.606V273.41H302.119V276.484ZM302.119 270.275H301.606V267.201H302.119V270.275ZM302.119 264.055H301.606V260.982H302.119V264.055ZM302.119 257.836H301.606V254.762H302.119V257.836ZM302.119 251.617H301.606V248.543H302.119V251.617ZM302.119 245.398H301.606V242.324H302.119V245.398ZM302.119 239.189H301.606V236.115H302.119V239.189ZM302.119 232.97H301.606V229.896H302.119V232.97ZM302.119 226.75H301.606V223.677H302.119V226.75Z" fill="#263238"/>
<g opacity="0.1">
<path d="M340.458 274.322H407.138L373.798 246.73L340.458 274.322Z" fill="black"/>
</g>
<path d="M307.631 274.352H366.76L337.2 256.381L307.631 274.352Z" fill="#FF00FF"/>
<g opacity="0.2">
<path d="M307.631 274.352H366.76L337.2 256.381L307.631 274.352Z" fill="black"/>
</g>
<path d="M407.138 274.322H307.631V287.979H407.138V274.322Z" fill="#FF00FF"/>
<g opacity="0.2">
<path d="M407.138 274.322H307.631V287.979H407.138V274.322Z" fill="black"/>
</g>
<path opacity="0.1" d="M325.377 251.105C330.447 251.105 334.557 246.995 334.557 241.924C334.557 236.854 330.447 232.744 325.377 232.744C320.306 232.744 316.196 236.854 316.196 241.924C316.196 246.995 320.306 251.105 325.377 251.105Z" fill="black"/>
<path d="M305.09 215.767H298.625V222.232H305.09V215.767Z" fill="#263238"/>
<path d="M305.09 290.336H298.625V296.801H305.09V290.336Z" fill="#263238"/>
<path d="M304.168 253.974H299.547V258.594H304.168V253.974Z" fill="#263238"/>
<path d="M359.7 216.689H355.079V221.31H359.7V216.689Z" fill="#263238"/>
<path d="M359.7 291.258H355.079V295.879H359.7V291.258Z" fill="#263238"/>
<path d="M415.222 253.974H410.601V258.594H415.222V253.974Z" fill="#263238"/>
<path d="M416.134 215.767H409.669V222.232H416.134V215.767Z" fill="#263238"/>
<path d="M416.134 290.336H409.669V296.801H416.134V290.336Z" fill="#263238"/>
<path d="M425.53 317.457L430.376 329.147L425.54 331.145L420.673 319.383L412.681 325.582V292.651L435.734 315.94L425.53 317.457Z" fill="#263238"/>
<path d="M412.968 288.277C412.616 287.604 412.439 286.853 412.456 286.094C412.434 285.335 412.611 284.582 412.968 283.912C413.305 284.59 413.48 285.337 413.48 286.094C413.48 286.851 413.305 287.598 412.968 288.277Z" fill="#263238"/>
<path d="M409.208 289.834C408.483 289.609 407.827 289.204 407.302 288.656C406.756 288.127 406.348 287.473 406.114 286.75C406.84 286.972 407.496 287.378 408.019 287.928C408.568 288.455 408.976 289.11 409.208 289.834Z" fill="#263238"/>
<path d="M407.651 293.594C406.978 293.947 406.227 294.123 405.468 294.106C404.709 294.128 403.956 293.952 403.286 293.594C403.958 293.241 404.709 293.065 405.468 293.082C406.227 293.07 406.977 293.246 407.651 293.594Z" fill="#263238"/>
<path d="M409.208 297.354C408.976 298.078 408.568 298.733 408.019 299.26C407.496 299.81 406.84 300.216 406.114 300.438C406.348 299.715 406.756 299.061 407.302 298.533C407.827 297.984 408.483 297.579 409.208 297.354Z" fill="#263238"/>
<path d="M418.286 293.594C418.96 293.246 419.71 293.07 420.468 293.082C421.227 293.065 421.978 293.241 422.65 293.594C421.98 293.952 421.228 294.128 420.468 294.106C419.709 294.123 418.958 293.947 418.286 293.594Z" fill="#263238"/>
<path d="M416.728 289.834C416.968 289.119 417.371 288.469 417.904 287.936C418.437 287.402 419.087 287 419.802 286.76C419.562 287.475 419.16 288.125 418.627 288.658C418.093 289.192 417.444 289.594 416.728 289.834Z" fill="#263238"/>
<path d="M605.088 252.99H543.295V265.787H605.088V252.99Z" fill="#FF00FF"/>
<path d="M559.873 265.684L558.141 282.037L536.789 416.626H530.672L547.537 282.037L548.9 265.684H559.873Z" fill="#0000FF"/>
<path d="M617.71 416.626H611.594L590.231 282.037L588.5 265.684H599.473L600.846 282.037L617.71 416.626Z" fill="#0000FF"/>
<path d="M607.393 374.126H539.238V377.968H607.393V374.126Z" fill="#0000FF"/>
<path opacity="0.1" d="M547.537 281.453H558.141L559.873 265.684H548.9L547.537 281.453Z" fill="black"/>
<path opacity="0.1" d="M600.846 281.453H590.231L588.5 265.684H599.473L600.846 281.453Z" fill="black"/>
<path d="M477.916 274.783C478.593 272.734 514.801 224.916 517.26 223.994C517.537 223.871 533.715 235.388 533.715 235.388C534.381 236.279 565.139 229.773 565.139 229.773L565.446 266.873L509.443 265.674C509.443 265.674 501.881 270.121 494.955 273.748C492.014 275.408 488.972 276.883 485.847 278.164C483.039 278.902 477.25 276.811 477.916 274.783Z" fill="#F7A9A0"/>
<path d="M485.826 278.174C488.949 276.894 491.987 275.42 494.924 273.758C501.84 270.141 509.412 265.684 509.412 265.684L521.881 265.951L541.348 234.455C537.065 235.213 533.869 235.664 533.654 235.388C533.654 235.388 517.486 223.871 517.199 223.994C514.719 224.916 478.531 272.734 477.855 274.783C477.179 276.832 483.039 278.902 485.826 278.174Z" fill="white"/>
<path d="M477.599 274.895C478.316 272.846 514.668 225.008 517.209 224.056C518.172 223.697 526.082 228.584 533.736 235.439L510.263 266.227C510.263 266.227 488.603 277.693 485.673 278.44C482.742 279.188 476.892 276.945 477.599 274.895Z" fill="#A6A6A6"/>
<path d="M480.037 275.613C486.328 267.754 510.959 235.449 516.584 227.191C516.584 227.129 516.584 227.099 516.584 227.191C510.181 234.845 485.847 267.344 479.955 275.541C479.781 275.684 479.904 275.777 480.037 275.613Z" fill="#263238"/>
<path d="M489.761 276.617C490.464 275.745 490.977 274.736 491.268 273.655C491.559 272.573 491.622 271.443 491.451 270.336C491.165 268.344 490.123 266.539 488.541 265.295C488.541 265.295 488.418 265.346 488.47 265.387C489.849 266.867 490.712 268.755 490.928 270.766C491.144 272.778 490.702 274.806 489.668 276.545C489.66 276.55 489.654 276.558 489.649 276.566C489.644 276.575 489.642 276.584 489.641 276.594C489.641 276.604 489.643 276.613 489.647 276.622C489.651 276.631 489.657 276.638 489.665 276.644C489.673 276.65 489.682 276.654 489.691 276.656C489.701 276.658 489.711 276.658 489.72 276.655C489.729 276.652 489.738 276.647 489.745 276.641C489.752 276.634 489.757 276.626 489.761 276.617Z" fill="#263238"/>
<path d="M507.547 268.072C510.027 264.896 511.728 260.326 510.621 256.33C510.621 256.176 510.355 256.238 510.334 256.33C509.675 260.254 508.593 264.094 507.107 267.785C507.069 267.843 507.055 267.914 507.07 267.983C507.084 268.051 507.125 268.111 507.184 268.149C507.242 268.187 507.313 268.2 507.381 268.185C507.45 268.171 507.509 268.13 507.547 268.072Z" fill="#263238"/>
<path d="M504.699 269.773C507.178 266.596 508.879 262.027 507.773 258.031C507.773 257.877 507.506 257.939 507.486 258.031C506.827 261.954 505.745 265.795 504.258 269.486C504.24 269.515 504.227 269.547 504.22 269.581C504.214 269.615 504.214 269.65 504.221 269.683C504.229 269.717 504.242 269.749 504.262 269.778C504.281 269.806 504.306 269.831 504.335 269.849C504.364 269.868 504.397 269.881 504.43 269.887C504.464 269.894 504.499 269.893 504.533 269.886C504.567 269.879 504.599 269.865 504.627 269.846C504.656 269.826 504.68 269.801 504.699 269.773Z" fill="#263238"/>
<path d="M501.851 271.555C504.33 268.379 506.031 263.809 504.924 259.814C504.924 259.66 504.658 259.721 504.638 259.814C503.979 263.737 502.897 267.578 501.41 271.268C501.372 271.327 501.359 271.398 501.373 271.466C501.388 271.534 501.429 271.594 501.487 271.632C501.545 271.67 501.617 271.683 501.685 271.669C501.753 271.655 501.813 271.614 501.851 271.555Z" fill="#263238"/>
<path d="M499.002 273.297C501.482 270.121 503.183 265.541 502.076 261.555C502.076 261.402 501.81 261.463 501.789 261.555C501.13 265.479 500.048 269.32 498.562 273.01C498.524 273.069 498.51 273.14 498.525 273.208C498.539 273.276 498.58 273.336 498.639 273.374C498.697 273.412 498.768 273.425 498.836 273.411C498.905 273.396 498.964 273.355 499.002 273.297Z" fill="#263238"/>
<path d="M522.639 235.029C525.365 231.422 519.771 227.181 517.035 230.787C514.299 234.394 519.924 238.635 522.639 235.029Z" fill="#263238"/>
<path d="M513.469 278.051C516.051 277.447 516.287 274.404 515.652 272.344C514.492 268.82 512.429 265.662 509.668 263.184C509.659 263.172 509.646 263.161 509.632 263.154C509.618 263.147 509.602 263.143 509.586 263.143C509.57 263.143 509.555 263.147 509.54 263.154C509.526 263.161 509.514 263.172 509.504 263.184C509.434 263.152 509.357 263.136 509.279 263.138C509.201 263.141 509.125 263.161 509.056 263.198C508.988 263.234 508.929 263.287 508.884 263.35C508.839 263.414 508.809 263.487 508.797 263.564C508.644 267.047 508.049 270.736 508.961 274.188C509.494 276.217 511.031 278.615 513.469 278.051ZM509.648 268.932C509.648 267.211 509.801 265.51 509.771 263.809C510.989 265.561 512.117 267.374 513.152 269.24C513.639 270.149 514.064 271.09 514.422 272.057C514.955 273.553 515.232 278.738 511.502 276.412C509.443 275.1 509.597 270.971 509.678 268.932H509.648Z" fill="#263238"/>
<path d="M514.535 254.312C511.984 256.781 510.59 260.264 508.931 263.338C508.899 263.408 508.885 263.485 508.89 263.562C508.894 263.639 508.917 263.713 508.956 263.779C508.995 263.846 509.049 263.902 509.114 263.942C509.18 263.983 509.253 264.008 509.33 264.014C509.33 264.086 509.33 264.148 509.463 264.127C513.106 263.435 516.502 261.795 519.31 259.373C520.918 257.928 522.281 255.203 520.334 253.359C518.387 251.514 516.031 252.877 514.535 254.312ZM517.834 253.769C522.24 253.687 519.32 257.99 518.09 259.004C517.286 259.648 516.437 260.234 515.549 260.756C513.704 261.821 511.806 262.792 509.863 263.666C510.775 262.211 511.543 260.684 512.404 259.199C513.418 257.477 515.406 253.809 517.875 253.769H517.834Z" fill="#263238"/>
<path d="M566.85 218.4H592.004C592.004 218.4 618.305 205.757 639.493 210.849C663.776 216.689 666.88 247.201 648.714 257.98C625.712 271.637 523.357 268.994 523.357 268.994L545.488 231.494C545.488 231.494 579.524 224.322 610.395 225.347L566.84 231.279L566.85 218.4Z" fill="#37474F"/>
<path d="M544.023 233.912C544.044 233.849 544.062 233.784 544.074 233.717V233.564C544.074 233.441 544.145 233.318 544.176 233.195C544.207 233.072 544.34 232.713 544.432 232.467C544.525 232.222 544.627 231.986 544.74 231.75C544.864 231.519 545.004 231.296 545.16 231.084C545.16 231.084 545.16 231.084 545.221 231.084H545.283H545.334C549.084 230.388 574.514 226.75 578.295 226.32C582.075 225.89 585.938 225.531 589.76 225.213C597.391 224.548 605.051 224.271 612.711 224.384L614.862 224.445C615.016 224.394 615.18 224.373 615.333 224.332C615.702 224.24 616.061 224.158 616.44 224.086C617.127 223.953 617.823 223.851 618.489 223.738C619.934 223.523 621.389 223.369 622.833 223.093C622.915 223.093 622.956 223.215 622.833 223.236C621.389 223.554 619.965 223.974 618.51 224.261L617.26 224.527C620.067 224.67 622.864 224.886 625.672 225.142C625.754 225.142 625.754 225.285 625.672 225.285C621.86 225.06 618.018 225.029 614.196 225.09C610.375 225.152 606.614 225.244 602.823 225.459C595.17 225.9 587.516 226.586 579.893 227.386C575.61 227.826 549.678 231.617 545.375 231.791H545.324C545.291 231.89 545.25 231.986 545.201 232.078C545.088 232.314 544.965 232.549 544.842 232.775C544.719 233 544.596 233.215 544.453 233.42C544.309 233.625 544.32 233.625 544.248 233.728L544.135 233.892C544.092 233.938 544.054 233.99 544.023 234.045C544.125 234.076 543.971 234.004 544.023 233.912Z" fill="#263238"/>
<path d="M531.348 266.699C532.721 264.506 533.889 262.16 535.139 259.906L538.92 253.103C541.44 248.584 550.477 233.4 551.369 232.334C551.38 232.315 551.398 232.301 551.419 232.296C551.44 232.29 551.462 232.293 551.481 232.303C551.5 232.314 551.514 232.332 551.52 232.353C551.526 232.375 551.523 232.397 551.512 232.416C551.092 233.594 545.447 243.687 544.145 245.9C541.553 250.387 538.828 254.783 536.133 259.219C535.365 260.49 534.576 261.74 533.797 262.99C533.018 264.24 532.189 265.49 531.471 266.781C531.43 266.873 531.307 266.801 531.348 266.699Z" fill="#263238"/>
<path d="M551.625 236.146C553.879 235.603 556.195 235.254 558.479 234.814L565.344 233.533C569.921 232.679 574.507 231.866 579.104 231.094C588.254 229.547 597.454 228.267 606.706 227.385C611.922 226.883 617.157 226.556 622.383 226.166C622.495 226.166 622.485 226.34 622.383 226.34C613.069 226.76 603.766 228.021 594.545 229.353C585.323 230.685 576.297 232.099 567.199 233.635C564.637 234.066 562.076 234.506 559.504 234.957C556.932 235.408 554.289 235.982 551.666 236.299C551.563 236.31 551.522 236.166 551.625 236.146Z" fill="#263238"/>
<path d="M525.611 396.821C527.814 396.595 582.649 371.954 584.145 369.69C584.719 368.839 581.594 360.643 577.537 350.848C576.666 348.727 575.744 346.544 574.801 344.342C568.653 329.997 561.871 314.926 561.871 314.926L525.15 331.319L539.084 360.284L542.158 366.647C542.158 366.647 525.385 385.468 524.012 388.163C522.639 390.858 523.408 397.036 525.611 396.821Z" fill="#F7A9A0"/>
<path d="M525.611 396.821C527.814 396.595 582.649 371.954 584.145 369.69C584.842 368.665 580.047 356.76 574.801 344.342L539.084 360.274L542.158 366.637C542.158 366.637 525.385 385.458 524.012 388.153C522.639 390.847 523.408 397.036 525.611 396.821Z" fill="white"/>
<path d="M525.611 396.821C527.814 396.595 582.649 371.954 584.145 369.69C584.719 368.839 581.594 360.643 577.537 350.848L542.137 366.636C542.137 366.636 525.365 385.458 523.992 388.153C522.619 390.847 523.408 397.036 525.611 396.821Z" fill="#A6A6A6"/>
<path d="M525.416 394.27C534.504 389.915 571.522 373.194 580.897 369.577C580.969 369.577 580.989 369.577 580.897 369.639C571.983 374.157 534.791 390.571 525.457 394.423C525.283 394.505 525.221 394.362 525.416 394.27Z" fill="#263238"/>
<path d="M526.635 384.526C527.645 384.039 528.745 383.768 529.865 383.729C530.985 383.69 532.101 383.885 533.141 384.3C535.022 385.032 536.548 386.459 537.404 388.286C537.404 388.337 537.322 388.388 537.291 388.337C536.161 386.657 534.517 385.389 532.605 384.722C530.693 384.055 528.616 384.026 526.687 384.638C526.679 384.642 526.671 384.644 526.663 384.644C526.655 384.644 526.647 384.643 526.639 384.64C526.632 384.637 526.625 384.633 526.619 384.627C526.613 384.622 526.608 384.615 526.605 384.608C526.601 384.6 526.599 384.592 526.599 384.584C526.599 384.576 526.6 384.568 526.603 384.56C526.606 384.553 526.61 384.546 526.616 384.54C526.621 384.534 526.628 384.529 526.635 384.526Z" fill="#263238"/>
<path d="M538.981 369.157C542.639 367.456 547.496 366.831 551.133 368.819C551.266 368.891 551.133 369.096 551.02 369.085C547.047 368.85 543.059 369.035 539.125 369.639C539.066 369.644 539.007 369.629 538.958 369.596C538.909 369.563 538.872 369.513 538.856 369.457C538.839 369.4 538.842 369.339 538.865 369.284C538.888 369.23 538.929 369.185 538.981 369.157Z" fill="#263238"/>
<path d="M536.646 371.534C540.303 369.823 545.15 369.208 548.787 371.186C548.93 371.268 548.787 371.462 548.684 371.462C544.707 371.216 540.716 371.402 536.779 372.016C536.721 372.018 536.663 372.001 536.616 371.967C536.569 371.933 536.535 371.884 536.52 371.828C536.504 371.772 536.508 371.712 536.531 371.659C536.554 371.606 536.594 371.562 536.646 371.534Z" fill="#263238"/>
<path d="M534.268 373.911C537.926 372.21 542.772 371.596 546.41 373.573C546.553 373.655 546.41 373.85 546.307 373.839C542.334 373.603 538.346 373.789 534.412 374.393C534.353 374.398 534.294 374.383 534.245 374.35C534.196 374.317 534.159 374.268 534.143 374.211C534.126 374.154 534.129 374.093 534.152 374.038C534.175 373.984 534.216 373.939 534.268 373.911Z" fill="#263238"/>
<path d="M531.963 376.329C535.611 374.628 540.467 374.003 544.104 375.991C544.248 376.063 544.104 376.268 544.002 376.257C540.025 376.021 536.034 376.207 532.096 376.811C532.038 376.813 531.981 376.796 531.934 376.762C531.887 376.728 531.853 376.679 531.837 376.623C531.822 376.567 531.826 376.507 531.849 376.454C531.872 376.401 531.912 376.357 531.963 376.329Z" fill="#263238"/>
<path d="M574.627 361.903C578.725 360.059 581.635 366.483 577.496 368.327C573.356 370.171 570.487 363.747 574.627 361.903Z" fill="#263238"/>
<path d="M533.316 366.38C536.451 368.05 540.201 368.296 543.633 368.932C543.992 369.003 544.207 368.645 544.166 368.337C544.182 368.333 544.196 368.326 544.208 368.315C544.22 368.304 544.23 368.291 544.236 368.276C544.242 368.261 544.244 368.245 544.243 368.229C544.241 368.213 544.236 368.197 544.227 368.184C542.441 364.929 539.83 362.201 536.656 360.274C534.791 359.188 531.768 358.737 530.6 361.114C529.432 363.491 531.482 365.407 533.316 366.38ZM531.779 363.409C530.344 359.239 535.334 360.694 536.676 361.544C537.539 362.114 538.361 362.744 539.135 363.43C540.721 364.858 542.232 366.366 543.664 367.948C541.994 367.528 540.303 367.262 538.623 366.923C536.625 366.483 532.568 365.704 531.779 363.409Z" fill="#263238"/>
<path d="M556.236 359.936C554.873 357.661 551.902 358.378 550.088 359.618C547.092 361.809 544.725 364.749 543.223 368.143C543.217 368.158 543.214 368.175 543.215 368.191C543.216 368.208 543.22 368.224 543.228 368.239C543.236 368.254 543.247 368.266 543.26 368.276C543.274 368.286 543.289 368.293 543.305 368.296C543.296 368.373 543.305 368.45 543.331 368.522C543.357 368.594 543.4 368.659 543.456 368.712C543.511 368.765 543.579 368.804 543.652 368.826C543.726 368.848 543.803 368.853 543.879 368.839C547.25 367.917 550.959 367.343 553.94 365.407C555.723 364.311 557.537 362.118 556.236 359.936ZM548.736 366.391C547.096 366.893 545.436 367.302 543.807 367.856C545.089 366.158 546.457 364.527 547.906 362.968C548.62 362.23 549.387 361.545 550.201 360.919C551.461 359.946 556.348 358.071 555.242 362.343C554.678 364.7 550.662 365.827 548.736 366.421V366.391Z" fill="#263238"/>
<path d="M573.961 340.971L532.66 359.649C532.66 359.649 483.48 265.285 482.209 236.402C481.113 211.812 498.224 202.324 553.551 218.226L567.106 218.4V227.765C561.153 228.543 545.283 231.043 545.283 231.043C533.736 235.398 530.016 237.191 530.201 237.57C559.002 295.715 573.961 340.971 573.961 340.971Z" fill="#37474F"/>
<path d="M523.439 227.191C525.109 229.414 526.646 231.73 528.121 234.086C537.088 230.247 546.572 227.748 556.266 226.668C558.992 226.33 561.717 226.094 564.463 225.941C564.576 225.941 564.576 226.105 564.463 226.115C554.718 226.79 545.088 228.62 535.775 231.566C533.203 232.355 530.652 233.277 528.141 234.178C529.914 237.017 531.584 239.926 533.193 242.846C536.188 248.317 538.883 253.947 541.266 259.711C542.598 262.897 543.889 266.115 545.027 269.373C545.027 269.465 544.904 269.527 544.873 269.434C539.852 258.184 534.357 247.174 528.387 236.402C526.697 233.328 524.935 230.357 523.264 227.293C523.244 227.211 523.377 227.109 523.439 227.191Z" fill="#263238"/>
<path d="M531.758 349.69C534.166 348.747 536.502 347.579 538.859 346.514L545.949 343.327C550.672 341.217 567.004 334.454 568.356 334.106C568.438 334.106 568.49 334.209 568.418 334.26C567.393 334.946 556.84 339.629 554.453 340.653C549.688 342.702 544.873 344.588 540.109 346.524C538.736 347.077 537.352 347.6 536.01 348.143C534.668 348.686 533.223 349.167 531.912 349.782C531.728 349.833 531.676 349.69 531.758 349.69Z" fill="#263238"/>
<path d="M523.644 231.453C526.902 237.601 529.678 244.127 532.506 250.521C535.334 256.914 538.07 263.307 540.703 269.742C546.003 282.57 550.938 295.548 555.508 308.676C558.11 316.094 560.528 323.563 562.895 331.053C562.895 331.155 562.762 331.196 562.731 331.053C558.356 317.815 553.613 304.69 548.664 291.647C543.715 278.604 538.479 265.746 532.926 252.99C531.369 249.404 529.784 245.831 528.172 242.273C526.564 238.717 524.894 235.172 523.387 231.566C523.357 231.433 523.562 231.31 523.644 231.453Z" fill="#263238"/>
<path d="M549.801 153.155C531.359 167.417 514.514 183.738 512.537 193.339C511.287 199.373 515.918 209.066 519.299 214.793C520.939 217.58 547.035 200.88 544.248 198.82C537.352 193.697 535.99 191.443 536.379 190.101C536.635 189.23 555.447 165.859 560.129 156.003C566.655 142.273 557.885 146.915 549.801 153.155Z" fill="#F7A9A0"/>
<path d="M523.223 174.333L540.785 186.269C540.785 186.269 557.27 165.357 561.276 154.876C565.283 144.394 560.887 144.271 550.529 151.7C540.17 159.128 523.223 174.333 523.223 174.333Z" fill="#FF00FF"/>
<path d="M523.223 174.333L540.785 186.269C540.785 186.269 557.27 165.357 561.276 154.876C565.283 144.394 560.887 144.271 550.529 151.7C540.17 159.128 523.223 174.333 523.223 174.333Z" fill="#FF00FF"/>
<g opacity="0.1">
<path d="M552.229 157.294L554.135 157.786C554.143 157.83 554.143 157.875 554.135 157.919C554.108 158.01 554.05 158.09 553.971 158.144C553.879 158.18 553.777 158.18 553.684 158.144L551.42 157.56V157.478L551.983 155.214C552.008 155.118 552.069 155.036 552.153 154.984C552.237 154.932 552.338 154.916 552.434 154.937C552.528 154.964 552.608 155.025 552.658 155.109C552.707 155.193 552.723 155.293 552.701 155.388L552.229 157.294Z" fill="#030402"/>
<path d="M555.582 153.322C555.602 153.359 555.616 153.4 555.621 153.441L556.133 157.14C556.142 157.202 556.132 157.266 556.104 157.322C556.077 157.379 556.034 157.426 555.979 157.458H555.867C555.825 157.464 555.782 157.461 555.742 157.45C555.701 157.439 555.663 157.42 555.629 157.395C555.596 157.369 555.568 157.337 555.547 157.3C555.526 157.263 555.513 157.223 555.508 157.181L554.986 153.534C554.974 153.448 554.996 153.361 555.048 153.292C555.1 153.223 555.177 153.177 555.262 153.165C555.304 153.159 555.346 153.162 555.387 153.172C555.428 153.183 555.466 153.202 555.499 153.228C555.533 153.254 555.561 153.286 555.582 153.322Z" fill="#030402"/>
</g>
<path d="M543.193 181.894C537.798 178.64 532.614 175.051 527.67 171.146C527.609 171.146 527.67 171.003 527.752 171.054C529.084 172.079 537.127 177.202 543.285 181.781C543.356 181.833 543.275 181.935 543.193 181.894Z" fill="#263238"/>
<path opacity="0.1" d="M562.639 149.896C562.378 151.62 561.91 153.305 561.246 154.917C557.27 165.398 540.754 186.31 540.754 186.31L533.746 181.546L562.639 149.896Z" fill="black"/>
<path d="M602.547 218.144C602.413 218.308 543.346 219.558 542.742 218.994C541.912 218.195 547.383 162.642 555.938 148.872C558.07 145.429 568.141 142.878 572.649 147.55C590.088 165.603 602.987 217.519 602.547 218.144Z" fill="#FF00FF"/>
<g opacity="0.1">
<path d="M552.383 157.335L554.135 157.786C554.187 157.797 554.236 157.819 554.278 157.851C554.321 157.883 554.356 157.924 554.381 157.97C554.406 158.017 554.421 158.069 554.425 158.122C554.428 158.175 554.42 158.228 554.402 158.277C554.374 158.369 554.316 158.449 554.238 158.503C554.145 158.538 554.043 158.538 553.951 158.503L552.158 158.042L552.158 158.04C552.23 157.805 552.301 157.57 552.383 157.335Z" fill="#030402"/>
<path d="M555.582 153.322C555.602 153.359 555.616 153.4 555.621 153.441L556.133 157.14C556.142 157.202 556.132 157.266 556.104 157.322C556.077 157.379 556.034 157.426 555.979 157.458H555.867C555.825 157.464 555.782 157.461 555.742 157.45C555.701 157.439 555.663 157.42 555.629 157.395C555.596 157.369 555.568 157.337 555.547 157.3C555.526 157.263 555.513 157.223 555.508 157.181L554.986 153.534C554.974 153.448 554.996 153.361 555.048 153.292C555.1 153.223 555.177 153.177 555.262 153.165C555.304 153.159 555.346 153.162 555.387 153.172C555.428 153.183 555.466 153.202 555.499 153.228C555.533 153.254 555.561 153.286 555.582 153.322Z" fill="#030402"/>
</g>
<path d="M559.883 224.547C557.485 226.525 553.121 220.213 553.121 220.213C553.258 221.542 552.925 222.876 552.178 223.984C550.774 225.879 547.188 224.506 547.188 224.506C547.043 225.915 546.475 227.247 545.559 228.328C544.033 229.998 540.221 229.127 540.221 229.127C539.373 230.35 538.11 231.224 536.666 231.586C532.783 232.416 528.572 228.051 525.857 225.306C523.141 222.56 518.039 212.222 516.851 210.347L534.34 192.816C534.34 192.816 549.986 201.679 552.711 205.357C555.016 208.472 563.531 221.535 559.883 224.547Z" fill="#F7A9A0"/>
<path d="M553.141 220.101C551.339 216.271 549.071 212.678 546.389 209.404C546.338 209.332 546.225 209.404 546.277 209.496C548.828 212.775 550.559 216.822 552.967 220.203C553.029 220.295 553.182 220.214 553.141 220.101Z" fill="#263238"/>
<path d="M547.352 224.22C546.892 223.374 546.324 222.592 545.662 221.894C545.006 221.105 544.34 220.336 543.613 219.578C542.25 218.062 540.857 216.576 539.412 215.121C539.35 215.06 539.238 215.121 539.299 215.213C540.662 216.73 541.994 218.287 543.275 219.845C543.92 220.623 544.566 221.422 545.201 222.222C545.748 223.009 546.38 223.734 547.086 224.383C547.108 224.419 547.143 224.444 547.183 224.454C547.223 224.463 547.266 224.456 547.301 224.435C547.336 224.413 547.362 224.378 547.371 224.338C547.381 224.297 547.374 224.255 547.352 224.22Z" fill="#263238"/>
<path d="M540.16 229.066C539.734 228.294 539.18 227.601 538.521 227.017C537.885 226.34 537.25 225.654 536.625 224.968C535.375 223.595 534.115 222.222 532.906 220.808C532.906 220.736 532.732 220.808 532.793 220.9C534.012 222.345 535.211 223.799 536.441 225.234L538.264 227.345C538.765 228.031 539.382 228.624 540.088 229.097C540.095 229.1 540.102 229.102 540.109 229.102C540.117 229.102 540.124 229.101 540.131 229.098C540.138 229.095 540.144 229.09 540.149 229.085C540.154 229.079 540.158 229.073 540.16 229.066Z" fill="#263238"/>
<path d="M576.276 149.036C604.78 163.38 631.214 185.654 630.579 194.322C629.954 203.482 614.37 216.423 599.401 221.187C596.327 222.16 582.475 200.89 585.508 199.25C587.864 197.98 598.663 192.683 599.749 190.88C600.497 189.619 578.346 167.939 570.252 155.993C561.84 143.482 568.653 145.194 576.276 149.036Z" fill="#F7A9A0"/>
<path d="M591.901 197.386C591.901 197.386 582.496 200.101 576.42 202.15C573.039 203.287 567.403 205.767 565.303 207.744C562.158 210.705 550.887 225.08 554.309 227.888C557.383 230.429 560.457 224.978 560.457 224.978C560.457 224.978 556.604 230.623 560.457 232.201C564.309 233.779 567.629 226.31 567.629 226.31C567.629 226.31 563.121 232.027 567.393 233.308C571.102 234.435 575.764 226.218 575.764 226.218C575.764 226.218 570.375 231.699 574.063 233.215C578.162 234.896 586.666 223.461 586.666 223.461C595.036 222.898 599.985 221.412 605.467 218.769C606.389 218.257 591.901 197.386 591.901 197.386Z" fill="#F7A9A0"/>
<path d="M566.389 228.154L567.25 226.433C567.773 225.301 568.365 224.203 569.022 223.144C569.705 222.119 570.388 221.125 571.071 220.162C571.84 219.138 572.721 218.174 573.469 217.088C573.473 217.078 573.479 217.069 573.488 217.062C573.496 217.055 573.505 217.05 573.516 217.047C573.526 217.044 573.537 217.043 573.548 217.045C573.559 217.047 573.569 217.051 573.577 217.058C573.586 217.064 573.593 217.072 573.599 217.082C573.604 217.092 573.607 217.102 573.607 217.113C573.607 217.124 573.605 217.135 573.601 217.145C573.597 217.155 573.59 217.163 573.582 217.17C572.837 218.195 572.153 219.263 571.532 220.367C570.877 221.392 570.241 222.488 569.596 223.554C568.951 224.619 568.285 225.603 567.629 226.627C567.301 227.14 567.004 227.652 566.696 228.185C566.437 228.702 566.139 229.198 565.805 229.67C565.805 229.67 565.703 229.67 565.713 229.609C565.889 229.103 566.116 228.615 566.389 228.154Z" fill="#263238"/>
<path d="M559.647 226.146C560.557 224.026 561.611 221.972 562.803 219.998C564.029 218.008 565.454 216.148 567.055 214.445C567.055 214.384 567.209 214.445 567.168 214.527C565.949 216.504 564.699 218.472 563.449 220.429C562.844 221.392 560.211 225.828 559.883 226.258C559.781 226.371 559.617 226.269 559.647 226.146Z" fill="#263238"/>
<path d="M572.68 230.203C573.578 228.219 574.604 226.295 575.754 224.445C577.098 222.669 578.57 220.995 580.16 219.435C580.221 219.384 580.323 219.435 580.272 219.527C578.94 221.3 577.567 223.041 576.317 224.886C575.713 225.777 573.49 229.486 572.834 230.285C572.783 230.367 572.66 230.285 572.68 230.203Z" fill="#263238"/>
<path d="M608.397 167.314L591.512 183.154C591.512 183.154 573.367 163.697 567.813 153.995C562.26 144.292 566.543 143.452 577.936 149.179C589.33 154.907 608.397 167.314 608.397 167.314Z" fill="#FF00FF"/>
<g opacity="0.1">
<path d="M583.643 172.161H583.694C583.705 172.161 583.899 172.468 583.899 172.468V172.529V172.591L583.5 174.24C583.305 174.015 583.1 173.79 582.905 173.554L583.1 172.765L581.973 172.478C581.707 172.181 581.45 171.874 581.184 171.566C581.248 171.551 581.315 171.551 581.379 171.566L583.643 172.161Z" fill="#030402"/>
<path d="M571.888 148.228C571.975 148.272 572.043 148.349 572.076 148.441C572.056 148.457 572.036 148.471 572.014 148.482L570.149 149.107L570.764 150.972C570.794 151.066 570.785 151.168 570.742 151.255C570.698 151.343 570.621 151.411 570.528 151.443C570.44 151.479 570.341 151.479 570.252 151.443C570.162 151.399 570.093 151.322 570.057 151.228L569.34 149.005V148.954H569.391L571.604 148.206C571.698 148.176 571.8 148.184 571.888 148.228Z" fill="#030402"/>
<path d="M574.919 149.785C575.004 149.785 575.087 149.818 575.149 149.876L575.098 149.896C575.138 149.925 575.17 149.962 575.194 150.005C575.218 150.047 575.233 150.094 575.237 150.143C575.24 150.192 575.234 150.241 575.217 150.287C575.2 150.332 575.174 150.374 575.139 150.409L572.332 152.806C572.278 152.841 572.216 152.86 572.152 152.86C572.089 152.86 572.026 152.841 571.973 152.806C571.938 152.788 571.907 152.764 571.881 152.734C571.851 152.705 571.828 152.67 571.811 152.631C571.795 152.592 571.787 152.551 571.787 152.509C571.787 152.467 571.795 152.426 571.811 152.387C571.828 152.348 571.851 152.313 571.881 152.284L574.688 149.876C574.751 149.818 574.833 149.785 574.919 149.785Z" fill="#030402"/>
</g>
<path d="M603.561 165.265C599.193 170.099 594.529 174.657 589.596 178.913C589.534 178.974 589.452 178.913 589.514 178.82C590.805 177.673 597.567 170.531 603.489 165.204C603.53 165.142 603.622 165.265 603.561 165.265Z" fill="#263238"/>
<path d="M592.588 182.037C592.228 182.284 591.886 182.554 591.563 182.847C588.776 179.568 589.319 180.337 586.502 177.078L582.403 172.283C580.969 170.624 579.617 168.861 578.1 167.273C578.1 167.273 577.987 167.273 578.028 167.335C579.053 168.984 580.354 170.521 581.573 172.068C581.328 171.843 581.092 171.607 580.836 171.392C580.262 170.911 579.698 170.439 579.166 169.917C579.084 169.835 578.951 169.917 579.032 170.029C579.535 170.531 580.057 171.054 580.477 171.587C580.897 172.12 581.502 172.611 581.953 173.124C582.403 173.636 582.977 174.046 583.479 174.497L583.664 174.66C584.442 175.624 585.211 176.597 586 177.54C587.69 179.594 589.533 181.519 591.512 183.298C591.949 182.942 592.357 182.551 592.731 182.13C592.743 182.111 592.748 182.088 592.743 182.065C592.738 182.043 592.725 182.024 592.706 182.012C592.686 182 592.663 181.995 592.641 182C592.619 182.005 592.6 182.018 592.588 182.037Z" fill="#263238"/>
<path d="M560.703 157.868C563.213 157.54 567.578 151.987 568.899 147.714C568.981 147.427 568.018 144.722 567.014 141.382C566.399 139.333 565.774 137.089 565.354 134.968L552.711 140.849C553.998 143.34 554.975 145.98 555.621 148.708C555.672 149.002 555.699 149.3 555.703 149.599C555.698 149.647 555.698 149.695 555.703 149.743C555.785 151.454 556.809 158.37 560.703 157.868Z" fill="#F7A9A0"/>
<path d="M555.785 149.599C555.79 149.65 555.79 149.702 555.785 149.753C556.254 149.72 556.719 149.651 557.178 149.548C564.821 147.837 564.842 137.991 564.699 135.306L552.711 140.849C553.998 143.34 554.975 145.98 555.621 148.708C555.699 149 555.754 149.298 555.785 149.599Z" fill="#263238"/>
<path d="M566.492 120.737C568.08 125.491 565.928 139.405 562.598 142.591C557.783 147.202 549.699 147.847 545.734 142.007C541.891 136.351 545.016 118.257 548.746 115.368C554.248 111.065 564.135 113.708 566.492 120.737Z" fill="#F7A9A0"/>
<path d="M554.022 129.405C554.022 129.405 554.094 129.466 554.084 129.507C553.869 130.429 553.787 131.556 554.565 131.997V132.048C553.551 131.751 553.674 130.296 554.022 129.405Z" fill="#263238"/>
<path d="M555.047 128.636C556.563 128.821 556.072 131.843 554.688 131.71C553.305 131.577 553.736 128.493 555.047 128.636Z" fill="#263238"/>
<path d="M548.787 128.462C548.787 128.462 548.705 128.462 548.695 128.534C548.582 129.476 548.295 130.583 547.393 130.716C547.393 130.716 547.393 130.767 547.393 130.778C548.459 130.788 548.828 129.405 548.787 128.462Z" fill="#263238"/>
<path d="M548.1 127.356C546.604 127.007 546.051 130.019 547.404 130.337C548.756 130.655 549.35 127.653 548.1 127.356Z" fill="#263238"/>
<path d="M556.451 127.437C556.061 127.274 555.723 127.048 555.344 126.843C554.922 126.69 554.562 126.402 554.32 126.024C554.268 125.89 554.262 125.743 554.302 125.606C554.343 125.469 554.429 125.349 554.545 125.265C554.8 125.135 555.084 125.073 555.37 125.088C555.656 125.102 555.934 125.192 556.174 125.347C556.704 125.593 557.124 126.028 557.352 126.567C557.398 126.691 557.406 126.826 557.376 126.955C557.346 127.085 557.279 127.202 557.184 127.294C557.089 127.386 556.969 127.449 556.838 127.474C556.708 127.5 556.574 127.487 556.451 127.437Z" fill="#263238"/>
<path d="M547.117 124.333C547.547 124.333 547.947 124.251 548.367 124.2C548.813 124.222 549.254 124.092 549.617 123.831C549.716 123.727 549.778 123.594 549.793 123.451C549.808 123.308 549.775 123.164 549.699 123.042C549.516 122.824 549.278 122.658 549.009 122.563C548.741 122.467 548.452 122.445 548.172 122.499C547.584 122.525 547.027 122.766 546.604 123.175C546.516 123.275 546.459 123.398 546.438 123.53C546.418 123.662 546.436 123.796 546.49 123.918C546.543 124.04 546.631 124.144 546.742 124.218C546.854 124.291 546.983 124.331 547.117 124.333Z" fill="#263238"/>
<path d="M552.988 135.388C552.693 135.723 552.333 135.993 551.929 136.182C551.525 136.371 551.087 136.474 550.641 136.485C550.251 136.497 549.861 136.452 549.483 136.351L549.268 136.3L549.063 136.228C549.015 136.212 548.973 136.18 548.945 136.137C548.917 136.095 548.905 136.044 548.91 135.993C548.91 135.993 548.91 135.921 548.91 135.89V135.808C549.002 135.081 549.238 133.995 549.238 133.995C548.961 134.087 547.516 134.476 547.598 134.108C548.183 130.866 549.1 127.694 550.334 124.64C550.334 124.538 550.518 124.64 550.498 124.64C549.975 127.642 548.92 130.532 548.346 133.534C548.86 133.389 549.39 133.313 549.924 133.308C550.027 133.308 549.422 135.358 549.412 135.726C549.994 135.875 550.6 135.906 551.195 135.818C551.789 135.73 552.36 135.525 552.875 135.214C552.988 135.245 553.059 135.327 552.988 135.388Z" fill="#263238"/>
<path d="M549.965 136.054C550.28 136.632 550.739 137.119 551.297 137.468C551.607 137.647 551.965 137.726 552.322 137.694C553.1 137.612 553.234 136.925 553.182 136.31C553.152 135.99 553.086 135.674 552.988 135.368C552.079 135.913 551.02 136.154 549.965 136.054Z" fill="#263238"/>
<path d="M551.297 137.468C551.607 137.647 551.965 137.725 552.322 137.694C553.1 137.612 553.233 136.925 553.182 136.31C552.784 136.265 552.382 136.354 552.04 136.564C551.698 136.774 551.436 137.092 551.297 137.468Z" fill="#FF9BBC"/>
<path d="M565.938 133.339C565.938 133.339 570.979 125.03 570.518 120.224C570.303 118.052 567.342 116.587 567.342 116.587C567.571 115.702 567.547 114.77 567.274 113.897C567.001 113.024 566.488 112.245 565.795 111.649C563.233 109.231 557.014 109.764 557.014 109.764C557.014 109.764 552.977 103.934 547.27 106.239C541.563 108.544 545.283 115.02 545.283 115.02C545.283 115.02 543.234 117.991 548.295 120.317C553.356 122.643 563.459 120.317 563.459 120.317C562.981 123.819 563.029 127.372 563.602 130.86C563.723 131.449 564.005 131.993 564.418 132.431C564.83 132.869 565.357 133.184 565.938 133.339Z" fill="#263238"/>
<path d="M556.02 109.845C557.294 109.325 558.661 109.074 560.037 109.108C561.266 109.092 562.489 109.286 563.653 109.681C564.699 109.98 565.645 110.557 566.388 111.351C567.132 112.145 567.645 113.126 567.875 114.19C567.958 114.742 567.93 115.306 567.793 115.848C567.656 116.39 567.412 116.899 567.076 117.345C567.076 117.345 566.994 117.345 567.076 117.345C568.397 115.716 567.701 113.175 566.338 111.802C564.675 110.347 562.534 109.555 560.324 109.579C558.907 109.556 557.493 109.704 556.113 110.02C556.101 110.026 556.089 110.029 556.076 110.031C556.063 110.032 556.05 110.03 556.037 110.027C556.012 110.019 555.992 110.002 555.979 109.979C555.967 109.955 555.965 109.928 555.972 109.904C555.98 109.879 555.997 109.858 556.02 109.845Z" fill="#263238"/>
<path d="M553.93 134.968C553.415 134.798 552.938 134.528 552.528 134.172C552.118 133.817 551.783 133.383 551.542 132.897C551.301 132.411 551.159 131.882 551.124 131.34C551.089 130.799 551.161 130.256 551.338 129.743C551.588 129.021 552.035 128.383 552.629 127.901C553.222 127.42 553.938 127.114 554.697 127.018C555.455 126.922 556.225 127.04 556.919 127.359C557.614 127.677 558.206 128.184 558.628 128.821C559.05 129.458 559.285 130.201 559.307 130.965C559.329 131.729 559.138 132.483 558.754 133.144C558.369 133.805 557.808 134.345 557.133 134.703C556.458 135.062 555.697 135.225 554.934 135.173C554.593 135.145 554.255 135.077 553.93 134.968ZM551.881 129.917C551.657 130.585 551.635 131.305 551.82 131.986C552.005 132.666 552.387 133.277 552.918 133.74C553.45 134.203 554.107 134.498 554.806 134.588C555.505 134.678 556.215 134.559 556.847 134.245C557.478 133.932 558.003 133.438 558.354 132.827C558.705 132.215 558.866 131.513 558.818 130.81C558.77 130.106 558.515 129.433 558.085 128.875C557.654 128.316 557.068 127.898 556.399 127.673C556.118 127.576 555.825 127.517 555.529 127.499C554.735 127.433 553.942 127.635 553.276 128.074C552.611 128.512 552.113 129.161 551.861 129.917H551.881Z" fill="#455A64"/>
<path d="M545.385 133.278C543.725 132.96 542.732 130.88 543.162 128.647C543.341 127.634 543.832 126.703 544.566 125.983C544.861 125.653 545.237 125.407 545.657 125.266C546.077 125.125 546.526 125.096 546.96 125.181C547.395 125.265 547.8 125.461 548.136 125.749C548.472 126.037 548.728 126.407 548.879 126.823C549.294 127.763 549.402 128.81 549.186 129.815C548.777 131.925 547.229 133.431 545.652 133.319L545.385 133.278ZM544.945 126.382C544.294 127.022 543.861 127.85 543.705 128.749C543.326 130.685 544.125 132.468 545.488 132.735C546.85 133.001 548.264 131.649 548.643 129.712C548.836 128.822 548.743 127.893 548.377 127.058C548.25 126.729 548.044 126.436 547.778 126.204C547.512 125.971 547.194 125.808 546.85 125.726H546.645C546.332 125.711 546.019 125.762 545.726 125.875C545.433 125.988 545.167 126.161 544.945 126.382Z" fill="#455A64"/>
<path d="M551.379 130.235L551.809 129.886C551.297 129.261 550.006 128.288 548.818 129.149L549.135 129.599C550.211 128.821 551.328 130.183 551.379 130.235Z" fill="#455A64"/>
<path d="M569.207 134.784L569.739 134.63C569.668 134.384 568.992 132.202 567.824 131.771C566.656 131.341 559.35 130.644 559.033 130.614V131.167C561.153 131.372 566.84 131.976 567.69 132.294C568.541 132.612 569.033 134.19 569.207 134.784Z" fill="#455A64"/>
<path d="M563.838 132.099C563.838 132.099 566.912 127.601 568.961 128.698C571.01 129.794 568.684 136.321 566.307 137.222C566.01 137.359 565.688 137.434 565.362 137.443C565.035 137.452 564.71 137.395 564.405 137.276C564.101 137.156 563.824 136.976 563.591 136.747C563.358 136.518 563.174 136.244 563.049 135.942L563.838 132.099Z" fill="#F7A9A0"/>
<path d="M568.264 130.552C568.264 130.552 568.315 130.552 568.264 130.614C567.499 131.002 566.824 131.547 566.283 132.212C565.741 132.877 565.344 133.649 565.119 134.476C565.213 134.3 565.346 134.146 565.507 134.028C565.669 133.91 565.855 133.829 566.052 133.793C566.249 133.757 566.451 133.765 566.645 133.818C566.838 133.87 567.017 133.966 567.168 134.097C567.168 134.097 567.168 134.2 567.168 134.19C566.873 134.097 566.557 134.098 566.263 134.194C565.969 134.289 565.712 134.474 565.528 134.722C565.222 135.137 564.961 135.584 564.75 136.054C564.668 136.208 564.401 136.126 564.463 135.952C564.34 133.78 566.03 130.788 568.264 130.552Z" fill="#263238"/>
<path d="M570.129 149.148C569.144 151.307 567.993 153.387 566.686 155.368C565.464 157.235 563.665 158.653 561.563 159.404C559.514 159.988 557.342 159.958 556.082 157.529C555.157 155.415 554.706 153.125 554.76 150.818C554.76 150.797 554.751 150.776 554.736 150.76C554.721 150.745 554.7 150.736 554.678 150.736C554.656 150.736 554.636 150.745 554.62 150.76C554.605 150.776 554.596 150.797 554.596 150.818C554.76 154.261 555.231 159.558 558.49 160.152C562.137 160.808 565.149 158.421 567.096 155.613C568.38 153.585 569.441 151.425 570.262 149.169C570.262 149.169 570.19 149.107 570.129 149.148Z" fill="#263238"/>
<path d="M594.975 231.002H529.463V233.933H594.975V231.002Z" fill="#C7C7C7"/>
<path d="M529.463 231.002V233.933H573.992L571.748 231.002H529.463Z" fill="#A6A6A6"/>
<path d="M568.92 233.933H505.078L499.761 190.572H563.602L568.92 233.933Z" fill="#C7C7C7"/>
<path d="M538.223 212.252C538.236 212.76 538.146 213.265 537.96 213.738C537.774 214.21 537.495 214.641 537.14 215.004C536.784 215.367 536.36 215.655 535.891 215.851C535.423 216.047 534.92 216.147 534.412 216.146C533.374 216.143 532.379 215.734 531.64 215.006C530.9 214.278 530.476 213.29 530.457 212.252C530.446 211.746 530.537 211.242 530.723 210.77C530.91 210.299 531.189 209.87 531.545 209.508C531.9 209.146 532.324 208.859 532.791 208.663C533.259 208.468 533.761 208.368 534.268 208.369C535.304 208.372 536.298 208.779 537.037 209.505C537.776 210.231 538.202 211.217 538.223 212.252Z" fill="white"/>
<defs>
<linearGradient id="paint0_linear_58_790" x1="595.538" y1="69.2325" x2="69.3028" y2="69.2325" gradientUnits="userSpaceOnUse">
<stop stop-color="#FF00FF"/>
<stop offset="0.509668" stop-color="#9936FF"/>
<stop offset="1" stop-color="#0000FF"/>
<stop offset="1" stop-color="#0000FF"/>
<stop offset="1" stop-color="#0000FF"/>
</linearGradient>
</defs>
</svg>
