<svg width="103" height="103" viewBox="0 0 103 103" fill="none" xmlns="http://www.w3.org/2000/svg">
<path d="M103 80.4921C99.2534 81.4672 96.9359 80.535 94.8566 77.3397L80.0696 56.4021L77.9324 53.5032L60.6638 77.4088C58.6907 80.2846 56.621 81.5364 52.9388 80.5185L75.0516 50.1399L54.4645 22.6997C58.0051 21.9948 60.4513 22.3539 62.624 25.5986L77.9613 46.7964L93.4113 25.7139C95.3909 22.8381 97.5185 21.7444 101.072 22.8052L93.0895 33.6363L82.2745 48.0482C80.987 49.6952 81.164 50.8218 82.3485 52.4129L103 80.4921ZM0.02575 49.6326L1.83469 40.5276C6.75937 22.5087 26.9409 15.0211 40.8588 26.1553C48.9926 32.704 51.014 41.9672 50.6116 52.3437H4.76375C4.07494 71.0215 17.2107 82.294 33.9578 76.5425C39.832 74.5232 43.2922 69.8158 45.0239 63.9259C45.9026 60.9744 47.3575 60.5132 50.0677 61.3565C48.6836 68.7222 45.5614 74.8756 38.963 78.7265C29.1039 84.4912 15.0316 82.6267 7.62844 74.6154C3.21875 69.9674 1.39694 64.0774 0.579375 57.779C0.450625 56.7381 0.193125 55.7466 0 54.7484C0.0171667 53.0443 0.02575 51.3401 0.02575 49.6359V49.6326ZM4.84744 48.3809H46.2792C46.0088 34.8749 37.7913 25.2823 26.5611 25.2C14.2333 25.1012 5.38175 34.4664 4.84744 48.3809Z" fill="white"/>
</svg>
