<svg width="48" height="48" viewBox="0 0 48 48" fill="none" xmlns="http://www.w3.org/2000/svg">
<path d="M0 0H48V48H0V0Z" fill="white"/>
<path d="M44.0715 36.5522C43.7201 34.3621 42.292 32.5233 38.0624 30.8077C36.5932 30.1324 34.9551 29.6488 34.4669 28.5354C34.2935 27.8875 34.2707 27.5225 34.3802 27.1301C34.6951 25.8571 36.2144 25.4602 37.419 25.8252C38.1947 26.0852 38.9293 26.683 39.3719 27.6366C41.4433 26.2952 41.4388 26.3043 42.8852 25.3826C42.3559 24.5613 42.073 24.1826 41.7262 23.8313C40.4806 22.4397 38.7833 21.7233 36.0684 21.7781C35.5985 21.8374 35.124 21.9012 34.654 21.9606C33.2989 22.3028 32.0076 23.0146 31.2502 23.9682C28.9779 26.5461 29.6259 31.0586 32.3909 32.9157C35.1148 34.9598 39.1163 35.4252 39.6274 37.337C40.1247 39.6777 37.9073 40.4351 35.7034 40.1659C34.0791 39.8283 33.1757 39.0024 32.1992 37.5013C30.4016 38.5416 30.4016 38.5416 28.5537 39.6047C28.9917 40.5629 29.4525 40.9963 30.1871 41.8267C33.6639 45.3537 42.365 45.1803 43.9255 39.8419C43.9893 39.6594 44.4092 38.4366 44.0715 36.5522ZM26.0943 22.0609H21.6046C21.6046 25.9392 21.5864 29.7902 21.5864 33.6685C21.5864 36.137 21.7141 38.4001 21.3126 39.0936C20.6556 40.4578 18.9537 40.289 18.178 40.0244C17.3886 39.6365 16.9871 39.0844 16.5217 38.3043C16.394 38.0807 16.2981 37.9073 16.2662 37.8936C15.048 38.6373 13.8342 39.3856 12.616 40.1294C13.2229 41.375 14.1171 42.4563 15.2624 43.159C16.9734 44.1856 19.273 44.5004 21.6776 43.9483C23.2426 43.492 24.5932 42.5476 25.3004 41.1103C26.3224 39.2259 26.1034 36.9446 26.0943 34.4214C26.1171 30.3058 26.0943 26.1902 26.0943 22.0609Z" fill="#202020"/>
</svg>
