<svg width="32" height="32" viewBox="0 0 32 32" fill="none" xmlns="http://www.w3.org/2000/svg">
<g clip-path="url(#clip0_14_2319)">
<path d="M30.6693 28.7787H30.972L30.392 27.9013C30.7467 27.9013 30.9347 27.676 30.9373 27.4C30.9373 27.3893 30.9373 27.3773 30.936 27.3667C30.936 26.9907 30.7093 26.8107 30.244 26.8107H29.492V28.7787H29.7747V27.9213H30.1227L30.6693 28.7787ZM30.1027 27.6987H29.7747V27.0333H30.1907C30.4053 27.0333 30.6507 27.068 30.6507 27.3493C30.6507 27.672 30.4027 27.6987 30.1013 27.6987" fill="white"/>
<path d="M23.0547 25.4307H19.0453V19.152C19.0453 17.6547 19.0187 15.728 16.96 15.728C14.872 15.728 14.552 17.3587 14.552 19.044V25.4307H10.544V12.5187H14.3933V14.2827H14.4467C15.232 12.9413 16.6907 12.14 18.244 12.1973C22.308 12.1973 23.056 14.8707 23.056 18.3467L23.0547 25.4307ZM6.02 10.7533C4.73467 10.7533 3.69333 9.71201 3.69333 8.42667C3.69333 7.14134 4.73467 6.10001 6.02 6.10001C7.30533 6.10001 8.34667 7.14134 8.34667 8.42667C8.34667 9.71201 7.30533 10.7533 6.02 10.7533ZM8.024 25.4307H4.01067V12.5187H8.024V25.4307ZM25.0533 2.37734H1.996C0.906667 2.36534 0.0133333 3.23867 0 4.32801V27.48C0.0133333 28.5707 0.906667 29.444 1.996 29.432H25.0533C26.1453 29.4453 27.0427 28.572 27.0573 27.48V4.32667C27.0413 3.23467 26.144 2.36134 25.0533 2.37601" fill="white"/>
<path d="M30.1373 25.9347C29.1187 25.944 28.3 26.7787 28.3106 27.7974C28.32 28.816 29.1546 29.6347 30.1733 29.624C31.192 29.6147 32.0107 28.78 32 27.7614C31.9907 26.756 31.1773 25.944 30.1733 25.9347H30.1373ZM30.18 29.412C29.2867 29.4267 28.508 28.716 28.4933 27.8227C28.4787 26.9294 29.1906 26.1934 30.084 26.1787C30.9773 26.164 31.7133 26.876 31.728 27.7694C31.728 27.7787 31.728 27.7867 31.728 27.796C31.7466 28.6694 31.0533 29.3934 30.18 29.412H30.1387H30.18Z" fill="white"/>
</g>
<defs>
<clipPath id="clip0_14_2319">
<rect width="32" height="32" fill="white"/>
</clipPath>
</defs>
</svg>
