<svg width="30" height="23" viewBox="0 0 30 23" fill="none" xmlns="http://www.w3.org/2000/svg">
<path d="M5.01819 22.5552H25.2707C27.694 22.5552 29.1002 21.1489 29.1002 18.462V4.58782C29.1002 1.90088 27.6814 0.494629 24.9694 0.494629H4.71685C2.29358 0.494629 0.887329 1.88832 0.887329 4.58782V18.462C0.887329 21.1489 2.30613 22.5552 5.01819 22.5552ZM13.5812 11.9581L4.44062 2.9179C4.6164 2.88023 4.8173 2.85512 5.03074 2.85512H24.9568C25.1828 2.85512 25.3837 2.88023 25.572 2.93045L16.444 11.9581C15.9166 12.4729 15.4772 12.6989 15.0126 12.6989C14.548 12.6989 14.1086 12.4603 13.5812 11.9581ZM3.23526 4.7636L10.0656 11.481L3.23526 18.236V4.7636ZM19.9596 11.481L26.7523 4.80127V18.2109L19.9596 11.481ZM5.03074 20.1821C4.80474 20.1821 4.59129 20.157 4.40295 20.1194L11.5974 12.9877L12.2754 13.6657C13.192 14.5571 14.0709 14.9338 15.0126 14.9338C15.9417 14.9338 16.8332 14.5571 17.7372 13.6657L18.4278 12.9877L25.6097 20.1068C25.4088 20.157 25.1954 20.1821 24.9568 20.1821H5.03074Z" fill="white"/>
</svg>
