<svg width="50" height="109" viewBox="0 0 50 109" fill="none" xmlns="http://www.w3.org/2000/svg">
<path d="M24.3175 1.4854L27.1976 6.88435C27.8451 7.88067 28.5466 8.76254 29.3728 9.58383C31.7952 11.9714 34.0531 14.5196 36.1312 17.211C41.0111 23.6063 44.3026 30.7084 46.6532 38.3895C48.0628 43.0816 48.8284 47.8949 48.8857 52.762C49.1218 67.3129 44.1238 79.8073 34.047 90.1912C32.4079 91.8378 30.6372 93.3485 28.7523 94.7082C27.7541 94.7082 27.2819 93.9442 26.8705 93.2407C26.1212 91.9362 25.6226 90.5036 25.4001 89.0164C25.046 87.2561 24.8133 85.4957 24.928 83.6781V82.8568C24.847 82.6818 23.9668 1.89941 24.3175 1.4854Z" fill="#D9D9D9"/>
<path d="M24.3172 1.30701C24.1992 1.07139 24.0811 1.24979 23.9631 1.36423C24.0204 2.5423 23.609 3.59247 22.9648 4.59552C22.2566 5.59184 21.3191 6.3559 20.3782 7.17719C15.1509 11.6943 11.0366 17.1504 7.74169 23.2529C3.35752 31.4657 1.09799 40.2677 0.457232 49.5341C0.16383 52.8764 1.51618 64.6707 2.57175 68.0736C5.4518 77.1078 10.6251 84.6777 17.3261 91.248C18.9719 92.83 20.7323 94.2976 22.5534 95.7079C23.0829 95.7079 23.1402 95.2367 23.2616 94.8866C23.4938 94.1376 23.6707 93.3726 23.7911 92.5978L24.9714 83.7992L24.3172 1.30701Z" fill="white"/>
<path d="M27.1975 98.2828C27.3156 96.9365 27.9631 95.819 28.6679 94.7049C27.9597 94.412 27.4336 93.8297 27.0222 93.1801C26.6674 92.565 26.3737 91.9168 26.1454 91.2447C25.3225 88.7808 25.1471 86.1958 24.911 83.6781V82.1533C24.6176 82.3889 24.5569 84.3816 24.5569 84.6778C24.3853 87.3388 24.0315 89.985 23.498 92.5978C23.3226 93.6547 23.2046 94.7082 22.5537 95.6473C22.5537 95.7651 22.5537 95.8829 22.611 96.058C23.67 99.1681 23.96 102.335 24.1388 105.563V106.741C24.1388 108.148 24.0814 107.852 25.2517 108.323C25.7238 108.498 26.2499 108.559 26.722 108.909C27.0761 108.909 27.1335 108.616 27.1335 108.381L26.9581 106.445V101.046C26.9008 100.104 27.0761 99.1681 27.1942 98.2862L27.1975 98.2828Z" fill="#C2BFBF"/>
</svg>
