<svg width="96" height="95" viewBox="0 0 96 95" fill="none" xmlns="http://www.w3.org/2000/svg">
<g clip-path="url(#clip0_611_92)">
<path d="M88.3681 73.213C83.1489 73.0822 79.1038 73.6069 75.7111 75.0496C74.7324 75.4428 73.1664 75.4432 73.0359 76.6894C73.5579 77.2142 73.6231 78.0669 74.0799 78.7881C74.8636 80.0996 76.2328 81.8706 77.4725 82.7893C78.8424 83.8384 80.213 84.8875 81.6478 85.8058C84.1925 87.3801 87.0635 88.298 89.5426 89.8722C90.9785 90.7898 92.4129 91.9712 93.8484 92.9548C94.5661 93.4788 95.0225 94.3322 95.9364 94.6598V94.4634C95.4793 93.8727 95.3488 93.0204 94.8924 92.3644C94.2406 91.7085 93.5874 91.1181 92.9349 90.4622C91.043 87.9048 88.6944 85.6746 86.15 83.8384C84.0624 82.3953 79.4949 80.4279 78.647 78.0009C78.647 78.0009 78.5814 77.9357 78.5165 77.8701C79.9516 77.7389 81.6478 77.2142 83.0184 76.8206C85.2365 76.2299 87.2589 76.3615 89.5426 75.7711C90.5863 75.5088 91.6303 75.1808 92.6739 74.8528V74.2629C91.5001 73.0822 90.6519 71.5083 89.4121 70.3932C86.0848 67.5067 82.4308 64.687 78.647 62.326C76.6243 61.0141 74.0143 60.1614 71.8614 59.0467C71.0791 58.6527 69.7738 58.4563 69.3174 57.8004C68.1425 56.3577 67.49 54.4559 66.6421 52.7504C64.7506 49.1428 62.9233 45.1423 61.292 41.3387C60.1183 38.7805 59.4005 36.2224 57.965 33.8617C51.245 22.712 43.9378 15.9566 32.7163 9.33201C30.302 7.95492 27.4314 7.36457 24.365 6.64342C22.7345 6.57745 21.1029 6.44664 19.472 6.38067C18.428 5.92152 17.384 4.67562 16.4705 4.08527C12.7524 1.72391 3.16101 -3.39126 0.42089 3.36412C-1.34086 7.62695 3.03089 11.8242 4.53089 13.9891C5.64089 15.4974 7.07564 17.2025 7.85864 18.9079C8.31539 20.0223 8.44551 21.2037 8.90226 22.384C9.94664 25.269 10.9246 28.4834 12.2953 31.1728C13.013 32.5499 13.7956 33.9925 14.7091 35.2388C15.2311 35.96 16.1443 36.2883 16.3404 37.4686C15.4273 38.7805 15.3616 40.7483 14.8393 42.3878C12.4906 49.7991 13.4045 58.9811 16.7315 64.4246C17.7751 66.0637 20.2546 69.6721 23.582 68.2942C26.5183 67.1139 25.8658 63.3755 26.7133 60.0962C26.9098 59.3083 26.7793 58.7843 27.1704 58.2595V58.3911C28.0839 60.227 28.997 61.9984 29.8453 63.8346C31.868 67.0479 35.3908 70.3932 38.3266 72.6234C39.893 73.8033 41.1324 75.8367 43.0899 76.5583V76.3611H42.959C42.5675 75.7708 41.9803 75.5088 41.4586 75.0492C40.2845 73.8693 38.9791 72.4262 38.066 71.1144C35.3263 67.4411 32.9116 63.3751 30.7588 59.1775C29.7151 57.1448 28.8013 54.9146 27.9534 52.8816C27.5615 52.0937 27.5615 50.9138 26.9094 50.5206C25.9306 51.9633 24.4955 53.2096 23.7778 54.9802C22.5388 57.8004 22.4079 61.2765 21.9511 64.8834C21.6901 64.9497 21.8203 64.8834 21.6898 65.0153C19.6025 64.4898 18.8848 62.326 18.1014 60.4893C16.1439 55.833 15.8176 48.356 17.5145 42.9781C17.9713 41.6007 19.9288 37.2722 19.1458 35.9604C18.7543 34.7141 17.4489 33.9926 16.7315 33.009C15.8836 31.7627 14.9698 30.1893 14.3829 28.8114C12.8169 25.1386 12.0339 21.0721 10.3378 17.3993C9.55476 15.6938 8.18526 13.9236 7.07564 12.3493C5.83626 10.5787 4.46601 9.33201 3.48726 7.23339C3.16139 6.51224 2.70426 5.33155 3.22626 4.54443C3.35676 4.01968 3.61739 3.82328 4.13976 3.69209C4.98801 2.97018 7.40226 3.88849 8.24976 4.28205C10.664 5.2652 12.6864 6.18427 14.7091 7.56136C15.6223 8.21729 16.601 9.46357 17.7751 9.79154H19.1454C21.2334 10.2503 23.5816 9.92272 25.5391 10.5127C28.9974 11.6274 32.1286 13.2672 34.9344 15.0383C43.4814 20.4818 50.5269 28.2211 55.2901 37.4686C56.0731 38.9765 56.399 40.3548 57.1168 41.9282C58.4874 45.1423 60.1835 48.4216 61.553 51.5697C62.9233 54.6519 64.2279 57.8004 66.1854 60.3585C67.1641 61.7352 71.0784 62.4571 72.8401 63.1787C74.1451 63.7686 76.1679 64.2938 77.342 65.0149C79.5601 66.3916 81.7783 67.9666 83.8663 69.4745C84.9103 70.2616 88.172 71.9015 88.3681 73.213Z" fill="white"/>
<path d="M21.8195 16.2182C20.7106 16.2182 19.928 16.3501 19.145 16.5465V16.6777H19.2755C19.7979 17.7272 20.7106 18.4488 21.3628 19.3667C21.8851 20.4158 22.3415 21.4657 22.8639 22.5152C22.9288 22.4492 22.994 22.384 22.994 22.384C23.9079 21.7277 24.3643 20.6786 24.3643 19.1043C23.9728 18.6455 23.9075 18.1864 23.5813 17.7272C23.1901 17.0709 22.3415 16.7433 21.8195 16.2182Z" fill="white"/>
</g>
<defs>
<clipPath id="clip0_611_92">
<rect width="96" height="95" fill="white"/>
</clipPath>
</defs>
</svg>
