<svg width="93" height="102" viewBox="0 0 93 102" fill="none" xmlns="http://www.w3.org/2000/svg">
<path d="M42.0954 1.08348C44.624 -0.357903 47.9175 -0.364414 50.444 1.08348C63.1542 8.23578 75.8684 15.3769 88.5765 22.5335C90.9667 23.8743 92.5656 26.5234 92.5412 29.2662V72.2972C92.559 75.1536 90.8022 77.866 88.2805 79.1764C75.612 86.2893 62.9501 93.4108 50.2838 100.524C47.7029 101.993 44.3433 101.88 41.843 100.29C38.045 98.0974 34.2404 95.9156 30.4421 93.7252C29.6659 93.2644 28.791 92.8976 28.2429 92.1481C28.7274 91.4978 29.5936 91.4168 30.2975 91.1328C31.8829 90.6308 33.339 89.8249 34.7954 89.0429C35.1637 88.7919 35.6133 88.8881 35.9664 89.1127C39.2141 90.9672 42.4332 92.8755 45.6918 94.7122C46.387 95.1119 47.0909 94.5813 47.6851 94.2514C60.1167 87.2543 72.5637 80.2836 84.9932 73.2843C85.4537 73.0637 85.7083 72.5768 85.6709 72.0744C85.6796 57.8794 85.6731 43.6819 85.6753 29.4869C85.7279 28.9168 85.3967 28.3927 84.8791 28.1594C72.2546 21.0791 59.6366 13.9879 47.0142 6.9058C46.7956 6.75607 46.5365 6.67574 46.2711 6.67535C46.0057 6.67496 45.7464 6.75454 45.5273 6.90363C32.9049 13.9879 20.2891 21.0856 7.66678 28.1656C7.15103 28.3992 6.8049 28.9147 6.86628 29.4869C6.86846 43.6819 6.86628 57.8794 6.86628 72.0766C6.84439 72.3217 6.89845 72.5676 7.02119 72.7812C7.14392 72.9948 7.32943 73.1659 7.55273 73.2713C10.9211 75.1735 14.2938 77.0623 17.6643 78.958C19.5631 79.9758 21.8945 80.5805 23.9865 79.8007C25.8327 79.1413 27.1268 77.2652 27.0915 75.3131C27.109 61.2009 27.0828 47.0866 27.1046 32.9766C27.0585 32.3501 27.6552 31.8325 28.2669 31.8915C29.8853 31.8806 31.5059 31.8698 33.1243 31.8958C33.7999 31.8806 34.2648 32.5552 34.1812 33.1864C34.1747 47.3879 34.1987 61.5897 34.1703 75.7912C34.1747 79.5761 32.6133 83.6944 29.0979 85.5464C24.767 87.7806 19.4142 87.3068 15.1357 85.1644C11.4317 83.3233 7.89705 81.1506 4.25885 79.1782C1.73061 77.875 -0.0174843 75.1518 0.000312608 72.2976V29.2662C-0.0262011 26.4667 1.63617 23.7694 4.10086 22.4481C16.7672 15.3295 29.4313 8.2054 42.0954 1.08348Z" fill="white"/>
<path d="M53.1456 30.8914C58.6698 30.5372 64.5839 30.6816 69.555 33.3918C73.4039 35.4687 75.5377 39.8276 75.6056 44.0859C75.4981 44.6603 74.8952 44.9771 74.3446 44.9377C72.7417 44.9355 71.1386 44.9594 69.5358 44.9268C68.8558 44.9529 68.4607 44.3286 68.3753 43.73C67.9148 41.6925 66.799 39.6746 64.8733 38.6918C61.9172 37.2179 58.4897 37.292 55.2663 37.3228C52.9131 37.4472 50.3827 37.6501 48.3891 39.0282C46.8585 40.0721 46.3936 42.1794 46.9399 43.8765C47.4549 45.095 48.8674 45.4882 50.0231 45.8506C56.6806 47.5846 63.7354 47.4121 70.2658 49.6941C72.9695 50.6244 75.6143 52.4329 76.5397 55.252C77.7503 59.0303 77.2197 63.5465 74.5203 66.5798C72.3313 69.0759 69.1431 70.4344 65.9633 71.1723C61.7331 72.1117 57.3431 72.1355 53.0471 71.7185C49.0076 71.2598 44.8039 70.203 41.6854 67.462C39.0188 65.1561 37.7164 61.5633 37.8457 58.0957C37.8766 57.5101 38.462 57.1017 39.0254 57.1498C40.6394 57.1368 42.2535 57.1325 43.8676 57.152C44.5122 57.1061 44.9902 57.6609 45.0233 58.2661C45.3211 60.2073 46.0537 62.2448 47.7535 63.3957C51.0339 65.5034 55.1501 65.359 58.9063 65.418C62.0182 65.2805 65.5115 65.2389 68.051 63.1906C69.3908 62.0223 69.7878 60.0677 69.4257 58.3861C69.0335 56.9665 67.5421 56.3049 66.2615 55.8723C59.6894 53.8019 52.5557 54.5532 46.0471 52.2119C43.4048 51.282 40.8497 49.5237 39.8346 46.8204C38.4181 42.9943 39.0671 38.2618 42.0494 35.3309C44.9572 32.4156 49.1547 31.2932 53.1456 30.8914Z" fill="white"/>
</svg>
