<svg width="87" height="90" viewBox="0 0 87 90" fill="none" xmlns="http://www.w3.org/2000/svg">
<g clip-path="url(#clip0_611_87)">
<path d="M86.6629 53.8876C86.1413 52.3028 84.7748 51.1991 83.0076 50.9342C82.1743 50.8095 81.22 50.8626 80.0907 51.0961C78.1223 51.5035 76.662 51.6586 75.5963 51.6886C79.619 44.8762 82.89 37.1077 84.7731 29.7949C87.8181 17.9702 86.1909 12.5834 84.2895 10.1468C79.2574 3.69747 71.9157 0.232818 63.0587 0.126806C58.3339 0.0688569 54.1861 1.00456 52.0223 1.67745C50.0077 1.32089 47.8416 1.12182 45.5687 1.08501C41.3081 1.01683 37.5436 1.94844 34.327 3.86314C32.5462 3.25911 29.6881 2.4076 26.3876 1.86425C18.6249 0.585964 12.3683 1.582 7.79199 4.82474C2.2505 8.75094 -0.318378 15.5725 0.156723 25.1C0.307614 28.1249 1.9946 37.3285 4.65082 46.057C6.1774 51.074 7.80525 55.2402 9.48917 58.441C11.8773 62.9797 14.4325 65.6525 17.3012 66.6124C18.909 67.1496 21.8303 67.526 24.9028 64.9592C25.2922 65.4323 25.8119 65.9024 26.5014 66.339C27.3772 66.893 28.448 67.3457 29.5175 67.6139C33.3717 68.5803 36.9819 68.3386 40.0619 66.984C40.0809 67.5335 40.0955 68.0584 40.1077 68.5118C40.1281 69.2471 40.1485 69.968 40.1754 70.6423C40.3579 75.2011 40.6671 78.7459 41.5833 81.2261C41.6336 81.3624 41.7013 81.5704 41.7726 81.7909C42.2297 83.1946 42.994 85.5446 44.9386 87.385C46.9522 89.2915 49.3878 89.8761 51.6186 89.8761C52.7373 89.8761 53.8048 89.7289 54.7411 89.5277C58.0783 88.8102 61.8686 87.7174 64.6105 83.8014C67.2028 80.0995 68.4629 74.5238 68.691 65.7384C68.7205 65.4899 68.7477 65.2527 68.7739 65.0267L68.8283 64.5624L69.439 64.6163L69.5963 64.6268C72.9954 64.7823 77.1517 64.0593 79.7043 62.87C81.7213 61.9312 88.1847 58.5085 86.6629 53.8876Z" fill="black"/>
<path d="M80.851 54.7861C70.744 56.8774 70.049 53.4451 70.049 53.4451C80.7201 37.5627 85.1813 17.4024 81.3319 12.4682C70.8293 -0.991264 52.6494 5.37424 52.3459 5.53922L52.2484 5.55694C50.2514 5.14108 48.017 4.8936 45.5052 4.85236C40.9323 4.77736 37.4631 6.05496 34.8307 8.05726C34.8307 8.05726 2.39941 -5.3439 3.90798 24.9115C4.22879 31.3479 13.1055 73.6133 23.693 60.8472C27.5628 56.1789 31.3021 52.2319 31.3021 52.2319C33.159 53.4693 35.3823 54.1006 37.7129 53.8739L37.894 53.7199C37.8376 54.2993 37.8635 54.8662 37.9664 55.5374C35.2389 58.594 36.0405 59.1306 30.5881 60.2565C25.0707 61.397 28.3118 63.4273 30.428 63.9584C32.9935 64.6016 38.9285 65.5131 42.9387 59.8822L42.779 60.5247C43.8474 61.3834 44.5978 66.1093 44.4721 70.3938C44.3463 74.6779 44.2624 77.6193 45.1042 79.9168C45.9466 82.2143 46.7857 87.3837 53.9537 85.8432C59.9428 84.5558 63.0466 81.2196 63.4785 75.6545C63.7847 71.6983 64.4783 72.2832 64.5218 68.746L65.0781 67.0716C65.7194 61.7086 65.1801 59.9783 68.8698 60.7831L69.767 60.8622C72.4823 60.9859 76.0371 60.4238 78.1234 59.4513C82.6154 57.3604 85.2805 53.8688 80.851 54.7861Z" fill="white"/>
<path d="M36.7288 27.7898C35.818 27.6627 34.9932 27.7803 34.5759 28.0973C34.3414 28.2756 34.2687 28.4822 34.249 28.6243C34.1966 29.001 34.4597 29.4175 34.6214 29.6323C35.0789 30.2404 35.747 30.6583 36.4083 30.7503C36.5042 30.764 36.5997 30.7701 36.6945 30.7701C37.7973 30.7701 38.8001 29.9087 38.8885 29.273C38.999 28.4767 37.8465 27.9456 36.7288 27.7898ZM66.9015 27.8151C66.8145 27.1909 65.7073 27.013 64.6565 27.1596C63.607 27.3061 62.5895 27.7813 62.6745 28.4068C62.7425 28.8932 63.6183 29.7236 64.6548 29.7236C64.7425 29.7236 64.8308 29.7178 64.9199 29.7052C65.6118 29.6091 66.1195 29.1683 66.3608 28.9144C66.7278 28.5271 66.9406 28.0956 66.9015 27.8151Z" fill="#A9A9A9"/>
<path d="M84.2138 54.5485C83.8284 53.3797 82.5879 53.0037 80.5271 53.4304C74.4082 54.6971 72.2169 53.8197 71.4975 53.2883C76.2536 46.0208 80.1662 37.2358 82.277 29.0395C83.2768 25.1569 83.8291 21.5511 83.8743 18.6121C83.9242 15.3864 83.3764 13.016 82.2467 11.5679C77.6922 5.73045 71.0074 2.59917 62.9158 2.51327C57.3529 2.45055 52.6528 3.87848 51.7417 4.28003C49.8229 3.80144 47.7312 3.5076 45.4539 3.47011C41.2779 3.40227 37.6681 4.40513 34.6795 6.44936C33.3813 5.96463 30.0263 4.80941 25.9234 4.1464C18.8302 3.00106 13.1936 3.86893 9.17116 6.72717C4.37155 10.138 2.15576 16.2349 2.58499 24.8481C2.72942 27.7459 4.37562 36.6604 6.97339 45.1976C10.3929 56.4342 14.1101 62.7953 18.021 64.1039C18.4788 64.257 19.0066 64.364 19.5887 64.364C21.0154 64.364 22.7646 63.7191 24.5844 61.5245C26.8041 58.8536 29.1003 56.2476 31.47 53.7096C33.0075 54.5373 34.6965 54.9995 36.4239 55.0459C36.4273 55.0912 36.4317 55.1365 36.4358 55.1815C36.1384 55.5372 35.8473 55.898 35.5624 56.2638C34.3655 57.7879 34.1164 58.1052 30.2636 58.9008C29.1676 59.1278 26.2568 59.7295 26.214 61.7761C26.1678 64.0122 29.6549 64.9513 30.0522 65.0509C31.4367 65.3986 32.7706 65.57 34.0426 65.57C37.1362 65.57 39.8587 64.5501 42.0344 62.5768C41.9674 70.5485 42.2988 78.4036 43.2531 80.7969C44.0347 82.7563 45.944 87.5445 51.9748 87.5442C52.8598 87.5442 53.8338 87.4409 54.9053 87.2105C61.1995 85.8572 63.9329 83.0668 64.9902 76.915C65.556 73.6273 66.5269 65.7766 66.9837 61.5654C67.9475 61.8671 69.1882 62.0052 70.5296 62.0048C73.3272 62.0048 76.5554 61.4086 78.5798 60.4661C80.8541 59.4067 84.958 56.8072 84.2138 54.5485ZM69.2246 26.0923C69.2039 27.3354 69.0333 28.4641 68.8525 29.6421C68.6577 30.9092 68.4566 32.2192 68.4059 33.8093C68.356 35.3569 68.5487 36.9658 68.7349 38.5219C69.1114 41.6648 69.4978 44.9004 68.0022 48.093C67.7537 47.6515 67.5324 47.1951 67.3395 46.7265C67.1536 46.2745 66.7499 45.5484 66.1908 44.5435C64.0162 40.6316 58.9236 31.4709 61.5305 27.7329C62.3071 26.6203 64.2778 25.4763 69.2246 26.0923ZM63.2284 5.03063C70.4786 5.19119 76.2138 7.91171 80.2743 13.1162C83.3886 17.1082 79.9593 35.2724 70.0314 50.9427C69.9316 50.8154 69.8312 50.6885 69.7303 50.562L69.6046 50.4045C72.17 46.1548 71.6684 41.9501 71.2219 38.2223C71.0384 36.6925 70.865 35.2475 70.9092 33.8901C70.9548 32.4516 71.1444 31.2177 71.3279 30.0246C71.5532 28.5544 71.7826 27.0331 71.7194 25.2397C71.7666 25.0516 71.7857 24.8293 71.7609 24.5655C71.5994 22.8458 69.6419 17.6989 65.6522 13.0405C63.4697 10.4925 60.2871 7.64105 55.9415 5.71784C57.8106 5.32924 60.3666 4.96689 63.2284 5.03063ZM22.6585 59.9183C20.6535 62.3365 19.2689 61.8729 18.8135 61.7209C15.8467 60.7282 12.4041 54.4384 9.36895 44.4644C6.74264 35.8341 5.2079 27.1558 5.08624 24.7223C4.70289 17.026 6.56286 11.6624 10.6148 8.77992C17.2091 4.08948 28.0508 6.89692 32.4073 8.32076C32.3448 8.3828 32.2795 8.44075 32.2177 8.50381C25.0687 15.7454 25.2383 28.1178 25.256 28.8742C25.2553 29.1659 25.2798 29.5791 25.3131 30.1473C25.4361 32.2284 25.6651 36.1014 25.0534 40.4874C24.4852 44.5633 25.7379 48.5525 28.4896 51.4326C28.772 51.7276 29.0688 52.0084 29.3789 52.2739C28.1542 53.5896 25.4922 56.4993 22.6585 59.9183ZM30.2979 49.6945C28.0801 47.3731 27.0728 44.1443 27.5339 40.8351C28.1796 36.2019 27.9414 32.1667 27.8133 29.9987C27.7953 29.6953 27.7793 29.4294 27.7701 29.2198C28.8145 28.2909 33.6542 25.69 37.1056 26.4833C38.6805 26.8449 39.6402 27.9207 40.0392 29.771C42.1041 39.3506 40.3124 43.3433 38.8728 46.5519C38.5761 47.2129 38.2958 47.8377 38.0565 48.484L37.871 48.9837C37.4013 50.247 36.9643 51.4217 36.6934 52.537C34.3356 52.5302 32.042 51.5202 30.2979 49.6945ZM30.6598 62.6136C29.9713 62.4411 29.3521 62.1415 28.9888 61.893C29.2923 61.7498 29.8323 61.5549 30.7689 61.3612C35.3014 60.4255 36.0015 59.7649 37.5301 57.8182C37.8805 57.3716 38.2778 56.8658 38.828 56.2495C39.6473 55.3291 40.0229 55.4846 40.7025 55.7675C41.2534 55.9959 41.79 56.6885 42.0075 57.4507C42.1105 57.8107 42.2261 58.4938 41.8478 59.0256C38.6546 63.5101 34.0015 63.4525 30.6598 62.6136ZM54.3806 84.7541C48.8357 85.9458 46.8724 83.108 45.5786 79.8639C44.7436 77.7696 44.3331 68.3253 44.6243 57.8956C44.6281 57.7568 44.6084 57.6229 44.5703 57.4967C44.5363 57.2477 44.4845 57.0014 44.4153 56.7598C43.9824 55.2422 42.9272 53.9728 41.6612 53.4465C41.1583 53.2375 40.2353 52.854 39.126 53.1387C39.3625 52.161 39.7727 51.0569 40.2176 49.8615L40.4042 49.3587C40.6142 48.7918 40.8779 48.2045 41.1566 47.5827C42.6631 44.2258 44.7263 39.6277 42.4871 29.2403C41.6483 25.3495 38.8473 23.4495 34.6013 23.8909C32.0559 24.1551 29.7269 25.1852 28.5654 25.7759C28.3156 25.9027 28.0872 26.0255 27.8738 26.1448C28.198 22.2247 29.4228 14.8986 34.0046 10.2634C36.8895 7.34552 40.7314 5.9043 45.4124 5.98202C54.6358 6.13336 60.5504 10.8811 63.8884 14.8376C66.7648 18.2467 68.3223 21.681 68.9439 23.5333C64.2693 23.0564 61.0901 23.9819 59.4786 26.2931C55.9724 31.3203 61.3966 41.0775 64.0036 45.7669C64.4817 46.6262 64.8943 47.369 65.0241 47.6847C65.8731 49.7483 66.9721 51.1261 67.7745 52.1317C68.0205 52.4399 68.2591 52.7388 68.4406 52.9999C67.0248 53.4093 64.4817 54.3552 64.7135 59.0835C64.5266 61.456 63.1975 72.5638 62.5222 76.4883C61.6308 81.673 59.7287 83.6037 54.3806 84.7541ZM77.5253 58.1877C76.0776 58.8616 73.6548 59.3671 71.3534 59.4759C68.8114 59.5952 67.5172 59.1902 67.2127 58.941C67.07 55.9945 68.1633 55.6867 69.3204 55.3608C69.5023 55.3097 69.6797 55.2596 69.8509 55.1996C69.9573 55.2865 70.0739 55.3727 70.2017 55.4573C72.2448 56.8099 75.8889 56.9558 81.0338 55.8905L81.0902 55.8793C80.3963 56.53 79.2089 57.4033 77.5253 58.1877Z" fill="#A9A9A9"/>
</g>
<defs>
<clipPath id="clip0_611_87">
<rect width="87" height="90" fill="white"/>
</clipPath>
</defs>
</svg>
