<svg width="48" height="48" viewBox="0 0 48 48" fill="none" xmlns="http://www.w3.org/2000/svg">
<rect width="48" height="48" fill="white"/>
<g clip-path="url(#clip0_168_153)">
<path d="M32.4087 31.1288C33.9217 30.9725 35.0695 29.6709 35.0173 28.1088C34.9652 26.5468 33.6608 25.2971 32.0956 25.2971H31.9913C30.3737 25.3492 29.1216 26.703 29.1738 28.317C29.226 29.0981 29.539 29.7749 30.0086 30.2435C28.2347 33.7322 25.5216 36.2834 21.4521 38.4182C18.6868 39.8761 15.8173 40.3968 12.9478 40.0324C10.5999 39.7199 8.77378 38.6787 7.62578 36.9603C5.95631 34.409 5.79983 31.6493 7.20857 28.8898C8.19994 26.9112 9.76498 25.4533 10.7563 24.7243C10.5477 24.0475 10.2346 22.902 10.0781 22.069C2.51279 27.5361 3.29547 34.9297 5.59115 38.4182C7.31283 41.0217 10.8086 42.6358 14.6694 42.6358C15.7129 42.6358 16.7563 42.5316 17.7999 42.2714C24.4782 40.9696 29.5392 37.0124 32.4087 31.1288V31.1288ZM41.5914 24.6724C37.6261 20.0383 31.7826 17.4871 25.1043 17.4871H24.2695C23.8 16.5498 22.8086 15.9249 21.713 15.9249H21.6085C19.9913 15.977 18.7392 17.3307 18.7912 18.945C18.8434 20.5069 20.1478 21.7566 21.713 21.7566H21.8172C22.9651 21.7045 23.9564 20.9755 24.3738 19.9862H25.313C29.2783 19.9862 33.0347 21.1317 36.4262 23.3706C39.0348 25.0889 40.9131 27.3279 41.9565 30.0353C42.8435 32.2221 42.7913 34.3569 41.8521 36.1794C40.3913 38.9389 37.9392 40.4489 34.7044 40.4489C32.6174 40.4489 30.6348 39.824 29.5912 39.3554C29.0174 39.8761 27.9738 40.7091 27.2433 41.2299C29.4869 42.2712 31.7826 42.844 33.9739 42.844C38.9826 42.844 42.687 40.0843 44.0958 37.3248C45.6088 34.3048 45.5043 29.0981 41.5914 24.6724V24.6724ZM15.0868 32.0137C15.139 33.5758 16.4433 34.8253 18.0085 34.8253H18.113C19.7304 34.7734 20.9825 33.4195 20.9303 31.8055C20.8782 30.2434 19.5738 28.9939 18.0085 28.9939H17.9043C17.7999 28.9939 17.6432 28.9939 17.5391 29.0458C15.3999 25.5052 14.513 21.6524 14.8261 17.4869C15.0346 14.3628 16.0782 11.6553 17.9043 9.41628C19.4173 7.48977 22.339 6.55257 24.3217 6.50062C29.8521 6.39642 32.1998 13.2693 32.3565 16.029C33.0347 16.1851 34.1826 16.5497 34.9652 16.81C34.339 8.37519 29.1216 4.00146 24.1131 4.00146C19.4173 4.00146 15.0868 7.38589 13.365 12.3844C10.965 19.049 12.5302 25.4533 15.452 30.5039C15.1912 30.8683 15.0346 31.4411 15.0868 32.0139V32.0137Z" fill="#202020"/>
</g>
<defs>
<clipPath id="clip0_168_153">
<rect width="41" height="39" fill="white" transform="translate(4 4)"/>
</clipPath>
</defs>
</svg>
