<svg width="87" height="98" viewBox="0 0 87 98" fill="none" xmlns="http://www.w3.org/2000/svg">
<path d="M72.1935 31.3518V66.4685L42.3852 83.9942L42.1133 84.2446V97.4909L42.3852 97.7414L84.3491 73.4701V24.5272H83.9494L72.1174 31.1504V31.4226" fill="#F1F1F1"/>
<path d="M12.479 66.7489L42.4396 84.1167V97.7387L0.125 73.3693V24.6307H0.549125L12.3567 31.5043L12.4817 31.9044V66.8986" fill="#9A9A9A"/>
<path d="M12.4791 31.8282L0 24.6307L42.2874 0.261333L84.3519 24.5327L72.1937 31.3573L42.2385 14.2889L12.4328 31.7847" fill="white"/>
<path d="M41.8634 62.72L41.5371 62.3933V49.2178L41.8634 49.0436V48.7169L53.1462 42.1182H53.4996V55.7157L41.7927 62.6656" fill="#F1F1F1"/>
<path d="M29.9553 56.2248V42.1019H30.2815L41.7655 48.7986V62.7472L29.8574 56.2221" fill="#9A9A9A"/>
<path d="M41.6649 35.1766L29.958 42.1264L41.8634 49L53.5704 42.1509L41.6622 35.1003" fill="white"/>
<path d="M27.2852 71.3494L26.959 71.0228V57.82L27.2852 57.6458V57.3191L38.568 50.7204H38.9215V64.3179L27.2145 71.2678" fill="#F1F1F1"/>
<path d="M15.3774 64.8216V50.6987H15.7037L27.1877 57.3981V71.3467L15.3774 64.8216Z" fill="#9A9A9A"/>
<path d="M27.1116 43.7733L15.3774 50.6959L27.2856 57.6458L38.9925 50.7967L27.0844 43.7461" fill="white"/>
<path d="M57.4908 71.6707L57.1646 71.344V58.1467L57.4908 57.9724V57.6458L68.7736 51.0471H69.1271V64.6446L57.4201 71.5944" fill="#F1F1F1"/>
<path d="M45.5826 65.1482V51.0253H45.9578L57.4418 57.722V71.6707L45.5337 65.1455" fill="#9A9A9A"/>
<path d="M57.2924 44.002L45.5854 50.9518L57.4936 57.9017L69.2005 51.0526L57.2924 44.002Z" fill="white"/>
<path d="M42.9127 80.2702L42.5864 79.9435V66.7489L42.9127 66.5747V66.248L54.1955 59.6493H54.5489V73.2468L42.842 80.1967" fill="#F1F1F1"/>
<path d="M30.98 73.7722V59.6711H31.3062L42.7902 66.3678V80.3164L30.98 73.7722Z" fill="#9A9A9A"/>
<path d="M42.6843 52.7022L30.9502 59.6521L42.8855 66.5012L54.5924 59.6521L42.6843 52.7022Z" fill="white"/>
<path d="M41.8634 44.002L41.5371 43.6753V30.527L41.8634 30.3528V30.0261L53.1462 23.4274H53.4996V37.0249L41.8634 44.002Z" fill="#F1F1F1"/>
<path d="M29.9553 37.5258V23.4029H30.2815L41.7655 30.0996V43.9966L29.8574 37.4714" fill="#9A9A9A"/>
<path d="M41.6649 16.5048L29.958 23.4547L41.8661 30.4045L53.5731 23.5554L41.6649 16.5048Z" fill="white"/>
<path d="M27.2852 52.6206L26.959 52.2939V38.9958L27.2852 38.8216V38.4949L38.568 31.8963H38.9215V45.4938L27.2145 52.4436" fill="#F1F1F1"/>
<path d="M15.3774 46.1253V32.0024H15.7037L27.1877 38.7018V52.6505L15.3774 46.1253Z" fill="#9A9A9A"/>
<path d="M27.1116 25.0798L15.3774 32.0024L27.2856 38.9986L38.9925 32.1494L27.0844 25.0989" fill="white"/>
<path d="M57.4908 52.9472L57.1646 52.6206V39.445L57.4908 39.2708V38.9441L68.7736 32.3454H69.1271V45.9429L57.4201 52.8928" fill="#F1F1F1"/>
<path d="M45.5825 46.501V32.3291H45.9577L57.39 39.004V52.9527L45.5825 46.501Z" fill="#9A9A9A"/>
<path d="M57.2924 25.4038L45.5854 32.3536L57.4936 39.3034L69.2005 32.4543L57.2924 25.4038Z" fill="white"/>
<path d="M42.9127 61.495L42.5864 61.1683V48.0472L42.9127 47.873V47.5463L54.1955 40.9477H54.5489V54.5452L42.9127 61.495Z" fill="#F1F1F1"/>
<path d="M30.98 55.0488V40.9259H31.3062L42.7902 47.6226V61.495L30.9827 55.0433" fill="#9A9A9A"/>
<path d="M42.6843 34.0006L30.9502 40.9232L42.8583 47.873L54.5653 41.0239L42.6843 34.0006Z" fill="white"/>
</svg>
