<svg width="89" height="89" viewBox="0 0 89 89" fill="none" xmlns="http://www.w3.org/2000/svg">
<g clip-path="url(#clip0_611_32)">
<path fill-rule="evenodd" clip-rule="evenodd" d="M32.6309 0C27.7111 0.00362895 23.7295 3.98822 23.7331 8.89818C23.7295 13.8082 27.7148 17.7927 32.6345 17.7964H41.536V8.90181C41.5396 3.99184 37.5543 0.0072579 32.6309 0C32.6346 0 32.6346 0 32.6309 0ZM32.6309 23.7333H8.90098C3.98118 23.737 -0.00411456 27.7215 -0.000478344 32.6315C-0.00775077 37.5415 3.97754 41.5261 8.89734 41.5333H32.6309C37.5507 41.5297 41.536 37.5451 41.5324 32.6351C41.536 27.7215 37.5507 23.737 32.6309 23.7333Z" fill="white"/>
<path fill-rule="evenodd" clip-rule="evenodd" d="M88.9997 32.6315C89.0033 27.7215 85.018 23.737 80.0982 23.7333C75.1784 23.737 71.1931 27.7215 71.1967 32.6315V41.5333H80.0982C85.018 41.5297 89.0033 37.5451 88.9997 32.6315ZM65.2661 32.6315V8.89818C65.2697 3.99184 61.2881 0.0072579 56.3683 0C51.4485 0.00362895 47.4632 3.98822 47.4668 8.89818V32.6315C47.4595 37.5415 51.4448 41.5261 56.3646 41.5333C61.2844 41.5297 65.2697 37.5451 65.2661 32.6315Z" fill="white"/>
<path fill-rule="evenodd" clip-rule="evenodd" d="M56.3648 89C61.2846 88.9964 65.2699 85.0118 65.2663 80.1018C65.2699 75.1918 61.2846 71.2073 56.3648 71.2036H47.4634V80.1018C47.4597 85.0082 51.445 88.9927 56.3648 89ZM56.3648 65.263H80.0984C85.0182 65.2594 89.0035 61.2748 88.9999 56.3649C89.0071 51.4549 85.0218 47.4703 80.102 47.463H56.3685C51.4487 47.4667 47.4634 51.4513 47.467 56.3612C47.4634 61.2748 51.445 65.2594 56.3648 65.263Z" fill="white"/>
<path fill-rule="evenodd" clip-rule="evenodd" d="M2.48631e-06 56.3649C-0.00363373 61.2748 3.98166 65.2594 8.90146 65.263C13.8213 65.2594 17.8065 61.2748 17.8029 56.3649V47.4667H8.90146C3.98166 47.4703 -0.00363373 51.4549 2.48631e-06 56.3649ZM23.7336 56.3649V80.0982C23.7263 85.0082 27.7116 88.9927 32.6314 89C37.5512 88.9964 41.5365 85.0118 41.5328 80.1018V56.3721C41.5401 51.4621 37.5548 47.4776 32.635 47.4703C27.7116 47.4703 23.7299 51.4549 23.7336 56.3649Z" fill="white"/>
</g>
<defs>
<clipPath id="clip0_611_32">
<rect width="89" height="89" fill="white"/>
</clipPath>
</defs>
</svg>
