<svg width="32" height="32" viewBox="0 0 32 32" fill="none" xmlns="http://www.w3.org/2000/svg">
<g clip-path="url(#clip0_14_2309)">
<path fill-rule="evenodd" clip-rule="evenodd" d="M16 0.394653C7.164 0.394653 0 7.55732 0 16.3947C0 23.464 4.584 29.4613 10.9413 31.5773C11.7413 31.7253 12.0347 31.2307 12.0347 30.808C12.0347 30.4267 12.02 29.1667 12.0133 27.8293C7.56267 28.7973 6.62267 25.9413 6.62267 25.9413C5.89467 24.092 4.84667 23.6 4.84667 23.6C3.39467 22.6067 4.956 22.628 4.956 22.628C6.56267 22.7413 7.408 24.2773 7.408 24.2773C8.83467 26.7227 11.1507 26.016 12.064 25.6067C12.208 24.572 12.6227 23.8667 13.08 23.4667C9.52667 23.0627 5.79067 21.6907 5.79067 15.56C5.79067 13.8133 6.416 12.3853 7.44 11.2653C7.27333 10.8613 6.72533 9.23465 7.59467 7.03065C7.59467 7.03065 8.93867 6.60132 11.996 8.67065C13.272 8.31599 14.64 8.13865 16 8.13199C17.36 8.13865 18.7293 8.31599 20.008 8.67065C23.0613 6.59999 24.404 7.03065 24.404 7.03065C25.2747 9.23465 24.7267 10.8613 24.5613 11.2653C25.5867 12.3853 26.208 13.8133 26.208 15.56C26.208 21.7053 22.4653 23.0587 18.9027 23.4547C19.476 23.9507 19.988 24.9253 19.988 26.4173C19.988 28.5587 19.9693 30.2813 19.9693 30.808C19.9693 31.2333 20.2573 31.7333 21.068 31.576C27.4227 29.4573 32.0013 23.4627 32.0013 16.396C32 7.55865 24.836 0.394653 16 0.394653Z" fill="white"/>
<path d="M6.05998 23.368C6.02532 23.448 5.89998 23.472 5.78532 23.4173C5.66932 23.3653 5.60398 23.256 5.64132 23.1773C5.67598 23.096 5.80132 23.0733 5.91732 23.128C6.03332 23.1787 6.09998 23.288 6.05998 23.368Z" fill="white"/>
<path d="M6.70798 24.0907C6.63198 24.1613 6.48264 24.128 6.38131 24.0173C6.27598 23.9053 6.25731 23.756 6.33464 23.6853C6.41331 23.6147 6.55731 23.648 6.66264 23.76C6.76798 23.8707 6.78798 24.0187 6.70798 24.0907Z" fill="white"/>
<path d="M7.33866 25.012C7.23999 25.08 7.07999 25.016 6.98132 24.8746C6.88266 24.732 6.88266 24.5613 6.98399 24.4933C7.08266 24.4253 7.24132 24.4866 7.34132 24.628C7.43866 24.772 7.43866 24.9426 7.33866 25.012Z" fill="white"/>
<path d="M8.20267 25.9027C8.11467 26 7.928 25.9733 7.792 25.8413C7.652 25.712 7.61333 25.5293 7.70133 25.432C7.79067 25.3347 7.97867 25.3627 8.116 25.4933C8.25467 25.6227 8.296 25.8067 8.20267 25.9027Z" fill="white"/>
<path d="M9.39598 26.4187C9.35731 26.544 9.17731 26.6013 8.99598 26.548C8.81464 26.4933 8.69598 26.3467 8.73331 26.22C8.77064 26.0933 8.95198 26.0347 9.13464 26.092C9.31464 26.1453 9.43331 26.292 9.39598 26.4187Z" fill="white"/>
<path d="M10.7053 26.5146C10.7093 26.6466 10.556 26.756 10.3653 26.7586C10.1747 26.7626 10.0187 26.656 10.0173 26.5266C10.0173 26.3933 10.168 26.2853 10.3587 26.2813C10.5493 26.2773 10.7053 26.384 10.7053 26.5146Z" fill="white"/>
<path d="M11.924 26.308C11.9467 26.436 11.8147 26.5693 11.6253 26.604C11.44 26.6387 11.268 26.5587 11.244 26.4307C11.2213 26.2987 11.356 26.1667 11.5413 26.132C11.7293 26.0987 11.9 26.176 11.924 26.308Z" fill="white"/>
</g>
<defs>
<clipPath id="clip0_14_2309">
<rect width="32" height="32" fill="white"/>
</clipPath>
</defs>
</svg>
