<svg width="81" height="79" viewBox="0 0 81 79" fill="none" xmlns="http://www.w3.org/2000/svg">
<g clip-path="url(#clip0_604_20)">
<path d="M40.3434 0C18.0652 0 0 18.1086 0 40.4474C0 58.3184 11.5596 73.4798 27.5894 78.8281C29.6055 79.2024 30.3459 77.9507 30.3459 76.8823C30.3459 75.9179 30.3082 72.7314 30.2912 69.3517C19.0673 71.7985 16.699 64.5795 16.699 64.5795C14.8638 59.9042 12.2196 58.6614 12.2196 58.6614C8.55942 56.1509 12.4955 56.2023 12.4955 56.2023C16.5468 56.4878 18.68 60.3706 18.68 60.3706C22.2782 66.5542 28.1178 64.7663 30.4199 63.7331C30.7819 61.1186 31.8276 59.3345 32.9812 58.3245C24.0206 57.3014 14.6006 53.8332 14.6006 38.335C14.6006 33.9193 16.1766 30.3109 18.7575 27.4784C18.3386 26.4595 16.9578 22.3458 19.1483 16.7744C19.1483 16.7744 22.536 15.6873 30.2456 20.9205C33.4634 20.024 36.9148 19.5748 40.3434 19.5596C43.772 19.5748 47.2259 20.024 50.45 20.9205C58.1504 15.6873 61.5334 16.7744 61.5334 16.7744C63.7293 22.3458 62.3478 26.4595 61.9289 27.4784C64.5155 30.3109 66.0808 33.919 66.0808 38.335C66.0808 53.87 56.6431 57.291 47.6596 58.2921C49.1066 59.5474 50.3959 62.009 50.3959 65.7824C50.3959 71.1942 50.3491 75.5499 50.3491 76.8823C50.3491 77.9586 51.0752 79.2199 53.1205 78.8227C69.1414 73.4683 80.6864 58.3124 80.6864 40.4474C80.6864 18.1086 62.6238 0 40.3434 0Z" fill="white"/>
<path d="M15.1098 57.6183C15.0212 57.8191 14.7055 57.8794 14.4185 57.7417C14.1258 57.6098 13.9613 57.3357 14.0562 57.1339C14.1432 56.9271 14.459 56.8694 14.751 57.0083C15.0443 57.14 15.2114 57.4166 15.1098 57.6183ZM17.0943 59.3935C16.902 59.5724 16.5258 59.4893 16.2704 59.2067C16.0065 58.9247 15.9572 58.5478 16.1524 58.366C16.3508 58.1874 16.7156 58.2709 16.9801 58.5532C17.244 58.8384 17.2953 59.213 17.094 59.3938M18.4558 61.6648C18.2084 61.8371 17.804 61.6756 17.5544 61.3159C17.3073 60.9565 17.3073 60.525 17.5598 60.3522C17.8104 60.1793 18.2084 60.3347 18.4615 60.6916C18.7083 61.0573 18.7083 61.4888 18.4555 61.6651M20.758 64.2955C20.5368 64.5398 20.066 64.4745 19.7211 64.1407C19.3687 63.8146 19.2703 63.3518 19.4921 63.1072C19.7158 62.8623 20.1894 62.9312 20.5368 63.262C20.8871 63.5875 20.9937 64.0538 20.758 64.2955ZM23.7335 65.1838C23.6364 65.5004 23.1826 65.6444 22.7257 65.5099C22.2695 65.3712 21.9708 65.0001 22.0629 64.68C22.1578 64.3612 22.6134 64.2112 23.0738 64.3552C23.5294 64.4932 23.8284 64.8615 23.7335 65.1838ZM27.1203 65.5603C27.1317 65.894 26.7441 66.1706 26.2644 66.1767C25.7819 66.1871 25.3918 65.9172 25.3867 65.5892C25.3867 65.2523 25.7655 64.9782 26.2477 64.9703C26.7273 64.9608 27.1203 65.2288 27.1203 65.5603ZM30.447 65.4325C30.5046 65.7579 30.1711 66.0923 29.6949 66.1811C29.2266 66.2668 28.7931 66.066 28.7333 65.7433C28.6751 65.4096 29.0149 65.0756 29.4823 64.989C29.9594 64.9059 30.3863 65.1016 30.447 65.4325Z" fill="#161614"/>
</g>
<defs>
<clipPath id="clip0_604_20">
<rect width="81" height="79" fill="white"/>
</clipPath>
</defs>
</svg>
