<svg width="83" height="83" viewBox="0 0 83 83" fill="none" xmlns="http://www.w3.org/2000/svg">
<path d="M38.782 0.0223356C38.6035 0.03856 38.0356 0.0953454 37.5244 0.135906C25.7357 1.1986 14.6934 7.55857 7.69961 17.3338C3.80518 22.7689 1.31437 28.9342 0.373216 35.4645C0.040567 37.7441 0 38.4174 0 41.5081C0 44.5989 0.040567 45.2722 0.373216 47.5517C2.62874 63.1353 13.7197 76.2283 28.762 81.0794C31.4556 81.9474 34.2953 82.5396 37.5244 82.8966C38.782 83.0345 44.218 83.0345 45.4756 82.8966C51.0495 82.28 55.7715 80.901 60.4285 78.5241C61.1425 78.159 61.2804 78.0617 61.1831 77.9806C61.1182 77.9319 58.0757 73.8515 54.4246 68.9193L47.7879 59.9553L39.4716 47.6491C34.8957 40.8835 31.1311 35.351 31.0986 35.351C31.0662 35.3429 31.0337 40.8105 31.0175 47.4868C30.9932 59.1765 30.985 59.647 30.839 59.9228C30.6281 60.3203 30.4658 60.4826 30.125 60.661C29.8654 60.7908 29.6382 60.8152 28.4131 60.8152H27.0095L26.6363 60.5799C26.3929 60.4258 26.2144 60.223 26.0927 59.9877L25.9223 59.6227L25.9385 43.3577L25.9629 27.0846L26.2144 26.7683C26.3442 26.5979 26.62 26.3789 26.8148 26.2734C27.1474 26.1112 27.2772 26.0949 28.6808 26.0949C30.336 26.0949 30.6118 26.1598 31.0418 26.6304C31.1635 26.7601 35.6665 33.5419 41.0538 41.7109C46.4411 49.8799 53.808 61.0342 57.4266 66.5099L63.9984 76.4636L64.3311 76.2446C67.2762 74.3301 70.3918 71.6044 72.8583 68.7651C78.1076 62.7378 81.4909 55.3881 82.6268 47.5517C82.9594 45.2722 83 44.5989 83 41.5081C83 38.4174 82.9594 37.7441 82.6268 35.4645C80.3713 19.881 69.2803 6.78791 54.238 1.93681C51.5849 1.07692 48.7615 0.484731 45.5973 0.127794C44.8184 0.0466722 39.4554 -0.042562 38.782 0.0223356ZM55.7715 25.1215C56.1609 25.3162 56.4773 25.6893 56.5909 26.0787C56.6558 26.2896 56.672 30.8 56.6558 40.9646L56.6315 55.5503L54.0595 51.6078L51.4795 47.6653V37.0626C51.4795 30.2078 51.5119 26.3545 51.5606 26.168C51.6904 25.7137 51.9744 25.3567 52.3638 25.1458C52.6965 24.9755 52.8182 24.9592 54.092 24.9592C55.2928 24.9592 55.5037 24.9755 55.7715 25.1215Z" fill="white"/>
</svg>
