<svg width="48" height="48" viewBox="0 0 48 48" fill="none" xmlns="http://www.w3.org/2000/svg">
<rect width="48" height="48" fill="white"/>
<path d="M46.5882 23.9519C46.5882 20.9843 42.8892 18.1718 37.218 16.4277C38.5267 10.6202 37.9451 5.99976 35.3821 4.52048C34.7913 4.17349 34.1006 4.00913 33.3463 4.00913V6.04542C33.7643 6.04542 34.1006 6.1276 34.3824 6.28283C35.6184 6.99507 36.1546 9.70707 35.7365 13.1952C35.6366 14.0536 35.473 14.9576 35.273 15.8798C33.4917 15.4415 31.5467 15.1037 29.5018 14.8845C28.2749 13.1952 27.0025 11.6612 25.721 10.3189C28.6839 7.55208 31.465 6.03628 33.3554 6.03628V4C30.856 4 27.5842 5.78974 24.2759 8.89439C20.9677 5.808 17.6959 4.03653 15.1965 4.03653V6.07281C17.0778 6.07281 19.868 7.57948 22.8309 10.328C21.5585 11.6703 20.2861 13.1952 19.0773 14.8845C17.0233 15.1037 15.0784 15.4415 13.297 15.889C13.088 14.9758 12.9335 14.0901 12.8244 13.2409C12.3973 9.75273 12.9244 7.04073 14.1513 6.31936C14.424 6.15499 14.7784 6.08194 15.1965 6.08194V4.04566C14.4331 4.04566 13.7424 4.21002 13.1425 4.55701C10.5886 6.03628 10.0161 10.6476 11.3339 16.4369C5.68085 18.1901 2 20.9934 2 23.9519C2 26.9196 5.69902 29.7321 11.3703 31.4761C10.0615 37.2837 10.6432 41.9041 13.2061 43.3834C13.7969 43.7304 14.4876 43.8947 15.251 43.8947C17.7504 43.8947 21.0223 42.105 24.3305 39.0003C27.6387 42.0867 30.9105 43.8582 33.4099 43.8582C34.1733 43.8582 34.8641 43.6938 35.4639 43.3469C38.0178 41.8676 38.5903 37.2563 37.2725 31.467C42.9074 29.7229 46.5882 26.9105 46.5882 23.9519ZM34.755 17.8613C34.4187 19.0393 34.0006 20.2537 33.528 21.4682C33.1554 20.7377 32.7646 20.0072 32.3374 19.2767C31.9194 18.5462 31.474 17.8339 31.0287 17.14C32.3193 17.3317 33.5644 17.5691 34.755 17.8613ZM30.5925 27.5862C29.8835 28.8189 29.1565 29.9877 28.4021 31.0744C27.0479 31.1931 25.6756 31.257 24.2941 31.257C22.9218 31.257 21.5494 31.1931 20.2043 31.0835C19.4499 29.9969 18.7138 28.8372 18.0049 27.6136C17.3141 26.4174 16.687 25.2029 16.1145 23.9793C16.6779 22.7557 17.3141 21.5321 17.9958 20.3359C18.7047 19.1032 19.4318 17.9344 20.1861 16.8478C21.5403 16.7291 22.9127 16.6651 24.2941 16.6651C25.6665 16.6651 27.0388 16.7291 28.3839 16.8386C29.1383 17.9253 29.8745 19.0849 30.5834 20.3085C31.2741 21.5047 31.9012 22.7192 32.4738 23.9428C31.9012 25.1664 31.2741 26.39 30.5925 27.5862ZM33.528 26.3991C34.0188 27.6227 34.4369 28.8463 34.7823 30.0334C33.5917 30.3256 32.3374 30.5721 31.0378 30.7639C31.4831 30.0608 31.9285 29.3394 32.3465 28.5998C32.7646 27.8693 33.1554 27.1296 33.528 26.3991ZM24.3123 36.1422C23.4671 35.2656 22.6218 34.2886 21.7857 33.2202C22.6037 33.2567 23.4398 33.2841 24.285 33.2841C25.1393 33.2841 25.9846 33.2659 26.8116 33.2202C25.9937 34.2886 25.1484 35.2656 24.3123 36.1422ZM17.5504 30.7639C16.2599 30.5721 15.0147 30.3347 13.8242 30.0425C14.1604 28.8646 14.5785 27.6501 15.0511 26.4357C15.4237 27.1662 15.8145 27.8967 16.2417 28.6272C16.6689 29.3577 17.1051 30.0699 17.5504 30.7639ZM24.2669 11.7616C25.1121 12.6382 25.9573 13.6153 26.7935 14.6836C25.9755 14.6471 25.1393 14.6197 24.2941 14.6197C23.4398 14.6197 22.5946 14.638 21.7675 14.6836C22.5855 13.6153 23.4307 12.6382 24.2669 11.7616ZM17.5414 17.14C17.096 17.8431 16.6507 18.5645 16.2326 19.3041C15.8145 20.0346 15.4237 20.7651 15.0511 21.4956C14.5603 20.272 14.1423 19.0484 13.7969 17.8613C14.9875 17.5783 16.2417 17.3317 17.5414 17.14ZM9.31625 28.5724C6.09892 27.1936 4.01765 25.3856 4.01765 23.9519C4.01765 22.5183 6.09892 20.7012 9.31625 19.3315C10.0979 18.9936 10.9522 18.6923 11.8338 18.4092C12.3518 20.199 13.0335 22.0618 13.8787 23.9702C13.0425 25.8695 12.37 27.7232 11.861 29.5038C10.9613 29.2207 10.107 28.9102 9.31625 28.5724ZM14.2059 41.621C12.9698 40.9088 12.4336 38.1968 12.8517 34.7086C12.9517 33.8503 13.1152 32.9463 13.3152 32.024C15.0965 32.4623 17.0415 32.8002 19.0864 33.0193C20.3133 34.7086 21.5857 36.2427 22.8672 37.585C19.9044 40.3518 17.1233 41.8676 15.2329 41.8676C14.8239 41.8585 14.4785 41.7763 14.2059 41.621ZM35.7638 34.663C36.191 38.1511 35.6638 40.8631 34.4369 41.5845C34.1642 41.7489 33.8098 41.8219 33.3917 41.8219C31.5104 41.8219 28.7202 40.3153 25.7574 37.5667C27.0298 36.2244 28.3022 34.6995 29.5109 33.0102C31.5649 32.7911 33.5099 32.4532 35.2912 32.0058C35.5002 32.928 35.6638 33.8138 35.7638 34.663ZM39.2629 28.5724C38.4813 28.9102 37.627 29.2116 36.7454 29.4946C36.2273 27.7049 35.5457 25.8421 34.7005 23.9337C35.5366 22.0344 36.2092 20.1807 36.7181 18.4001C37.6179 18.6832 38.4722 18.9936 39.272 19.3315C42.4893 20.7103 44.5706 22.5183 44.5706 23.9519C44.5615 25.3856 42.4802 27.2027 39.2629 28.5724Z" fill="#202020"/>
<path d="M24.2941 27.4677C26.2382 27.4677 27.8142 25.8917 27.8142 23.9476C27.8142 22.0035 26.2382 20.4275 24.2941 20.4275C22.35 20.4275 20.774 22.0035 20.774 23.9476C20.774 25.8917 22.35 27.4677 24.2941 27.4677Z" fill="#202020"/>
</svg>
