<svg width="97" height="73" viewBox="0 0 97 73" fill="none" xmlns="http://www.w3.org/2000/svg">
<path d="M83.5023 41.9187C80.1107 41.9379 77.174 42.7557 74.7109 43.9733C73.8014 42.1661 72.8919 40.5871 72.7406 39.4078C72.57 38.0382 72.3616 37.201 72.57 35.5652C72.7783 33.9291 73.7256 31.6083 73.7256 31.418C73.7065 31.2468 73.517 30.4098 71.5657 30.3908C69.6143 30.3718 67.9278 30.7713 67.7384 31.2849C67.5489 31.7985 67.17 32.9779 66.9237 34.1954C66.5826 35.9835 63.0206 42.3181 60.9933 45.6471C60.3301 44.3536 59.7617 43.2122 59.6478 42.2989C59.4775 40.9295 59.2689 40.0923 59.4775 38.4565C59.6859 36.8203 60.6333 34.4997 60.6333 34.3095C60.6143 34.1383 60.4248 33.3013 58.4735 33.2823C56.5218 33.2632 54.8357 33.6627 54.6462 34.1763C54.4567 34.69 54.2483 35.9074 53.8315 37.0868C53.4334 38.2663 48.6967 48.843 47.4651 51.6013C46.8399 53.009 46.2906 54.1313 45.8925 54.8922C45.4946 55.6532 45.8736 54.9493 45.8357 55.0254C45.4946 55.6722 45.3052 56.0336 45.3052 56.0336V56.0528C45.0399 56.5284 44.7557 56.9848 44.6229 56.9848C44.5281 56.9848 44.3387 55.7102 44.6608 53.9603C45.3618 50.2887 47.067 44.563 47.0483 44.3538C47.0483 44.2587 47.3702 43.2503 45.9492 42.7368C44.566 42.2232 44.0736 43.0792 43.9597 43.0792C43.8461 43.0792 43.7513 43.3836 43.7513 43.3836C43.7513 43.3836 45.286 36.935 40.8145 36.935C38.0104 36.935 34.1452 39.9977 32.2316 42.7941C31.019 43.4599 28.4422 44.8674 25.7138 46.3704C24.6717 46.9411 23.5918 47.5498 22.5686 48.1015L22.3604 47.8728C16.9416 42.0708 6.91861 37.9619 7.33544 30.1625C7.48702 27.3281 8.47226 19.8521 26.5858 10.7973C41.4212 3.37834 53.301 5.41379 55.366 9.94123C58.3028 16.409 49.0188 28.4314 33.5961 30.1625C27.7226 30.8283 24.634 28.5456 23.8574 27.6896C23.0427 26.7955 22.929 26.7574 22.6258 26.9286C22.1332 27.195 22.4364 27.9939 22.6258 28.4695C23.0806 29.6679 24.9753 31.7985 28.1962 32.8638C31.0192 33.7959 37.916 34.3095 46.2527 31.0756C55.5936 27.4423 62.8881 17.3601 60.7471 8.93302C58.5682 0.35371 44.3959 -2.46167 31.0004 2.31306C23.0235 5.16649 14.3837 9.61784 8.16911 15.4579C0.779794 22.3822 -0.394918 28.4314 0.0977028 30.9425C1.82207 39.9022 14.1185 45.7422 19.0447 50.0604C18.7984 50.1934 18.571 50.3266 18.3626 50.4409C15.8995 51.6582 6.52072 56.5853 4.1713 61.7973C1.51873 67.6944 4.58813 71.9367 6.63441 72.5074C12.9627 74.2765 19.4426 71.0997 22.9477 65.8684C26.4338 60.6371 26.0172 53.846 24.4067 50.7453L24.3496 50.6311L26.2822 49.4897C27.5329 48.7479 28.7645 48.063 29.8442 47.4731C29.2381 49.1281 28.8022 51.0875 28.575 53.9409C28.3097 57.2891 29.6739 61.6261 31.4739 63.3382C32.2696 64.0799 33.217 64.0991 33.8044 64.0991C35.8885 64.0991 36.8359 62.3678 37.878 60.2945C39.1663 57.7645 40.3032 54.835 40.3032 54.835C40.3032 54.835 38.8821 62.7675 42.7663 62.7675C44.1873 62.7675 45.6083 60.9223 46.2525 59.9712V59.9902C46.2525 59.9902 46.2904 59.9331 46.3662 59.7999C46.4457 59.6819 46.5215 59.5615 46.5936 59.4387V59.4007C47.162 58.4115 48.4314 56.1478 50.3261 52.4002C52.7701 47.5684 55.1197 41.5192 55.1197 41.5192C55.1197 41.5192 55.3471 43.003 56.0481 45.4379C56.4647 46.8838 57.3742 48.4625 58.0752 50.0034C57.5068 50.8023 57.1658 51.2591 57.1658 51.2591L57.1847 51.2781C56.7302 51.8868 56.2184 52.5338 55.6881 53.1804C53.7555 55.5012 51.444 58.1455 51.1408 58.9064C50.7808 59.8003 50.8566 60.4661 51.5577 60.999C52.0692 61.3794 52.9787 61.4553 53.945 61.3794C55.6881 61.2651 56.9007 60.8278 57.507 60.5612C58.4544 60.2188 59.5343 59.7052 60.5764 58.9443C62.4711 57.5368 63.6269 55.5394 63.5132 52.8762C63.4564 51.4114 62.9827 49.9657 62.3953 48.5961C62.5659 48.3488 62.7366 48.1013 62.9069 47.8351C65.9005 43.4407 68.212 38.6091 68.212 38.6091C68.212 38.6091 68.4394 40.0928 69.1404 42.5278C69.5003 43.7642 70.2204 45.1151 70.8646 46.4467C68.0605 48.7484 66.2984 51.4116 65.6921 53.1617C64.5742 56.3956 65.4458 57.8604 67.0942 58.2028C67.8329 58.355 68.8941 58.0126 69.6897 57.6702C70.675 57.3468 71.8686 56.7949 72.9677 55.9771C74.8624 54.5694 76.6813 52.6101 76.5866 49.9659C76.5298 48.7484 76.2077 47.55 75.7719 46.4086C78.1592 45.4194 81.2474 44.8487 85.1696 45.3243C93.601 46.3135 95.2683 51.6019 94.9464 53.8085C94.6243 56.0154 92.8622 57.2326 92.2747 57.6131C91.6873 57.9745 91.4979 58.1079 91.5547 58.374C91.6305 58.7737 91.8958 58.7545 92.4073 58.6786C93.1084 58.5642 96.8409 56.8714 96.9925 52.8007C97.2198 47.5686 92.2747 41.8618 83.5023 41.9187ZM18.4763 63.9281C15.6911 66.9908 11.769 68.1512 10.1017 67.162C8.30174 66.1157 9.00259 61.6073 12.4322 58.3544C14.5163 56.376 17.2258 54.5498 19.0068 53.4275C19.4047 53.1802 20.011 52.8189 20.7309 52.3812C20.8446 52.3053 20.9204 52.2671 20.9204 52.2671C21.053 52.191 21.2046 52.0959 21.3562 52.0008C22.6256 56.6423 21.413 60.7132 18.4763 63.9281ZM38.8442 50.0224C37.878 52.4002 35.8317 58.5066 34.6001 58.1642C33.5389 57.8788 32.8949 53.2563 34.3915 48.6908C35.1494 46.3888 36.7599 43.6497 37.7072 42.5843C39.2421 40.8722 40.9093 40.3015 41.3263 41.0054C41.8189 41.9186 39.4506 48.5386 38.8442 50.0224ZM55.6502 58.0881C55.2334 58.2975 54.8544 58.4495 54.6839 58.3356C54.5513 58.2595 54.8542 57.9741 54.8542 57.9741C54.8542 57.9741 56.9574 55.7104 57.791 54.6642C58.2647 54.0556 58.8331 53.3518 59.4394 52.5526V52.7809C59.4396 55.52 56.8249 57.3462 55.6502 58.0881ZM68.6097 55.1205C68.3066 54.8922 68.3447 54.1884 69.3676 51.9817C69.7657 51.1067 70.675 49.6419 72.2476 48.2533C72.437 48.8239 72.5509 49.3754 72.5318 49.8892C72.513 53.3133 70.0878 54.5879 68.6097 55.1205Z" fill="white"/>
</svg>
