<svg width="75" height="75" viewBox="0 0 75 75" fill="none" xmlns="http://www.w3.org/2000/svg">
<path fill-rule="evenodd" clip-rule="evenodd" d="M66.0966 0H8.91547C6.55304 -2.14684e-06 4.28719 0.938249 2.61558 2.60869C0.94396 4.27912 0.00325674 6.54516 7.28761e-05 8.90911V66.0428C-0.00467305 67.2174 0.222428 68.3813 0.668343 69.4678C1.11426 70.5544 1.77021 71.5421 2.59855 72.3743C3.4269 73.2065 4.41133 73.8669 5.49535 74.3175C6.57937 74.7681 7.74164 75 8.91547 75H66.0966C67.2694 74.9984 68.4303 74.7653 69.513 74.314C70.5956 73.8627 71.5786 73.2021 72.4057 72.3701C73.2328 71.538 73.8876 70.5508 74.3328 69.4651C74.778 68.3793 75.0047 67.2164 74.9999 66.0428V8.90911C74.9967 6.54724 74.0577 4.28302 72.3887 2.61293C70.7197 0.942838 68.4569 0.00318097 66.0966 0ZM32.3454 54.0197C32.3438 54.4123 32.2648 54.8007 32.1129 55.1627C31.9609 55.5246 31.739 55.853 31.4599 56.1289C31.1808 56.4048 30.85 56.6229 30.4865 56.7705C30.123 56.9182 29.7339 56.9926 29.3416 56.9894H16.8456C16.0606 56.9862 15.3088 56.672 14.7548 56.1154C14.2008 55.5588 13.8898 54.8053 13.8898 54.0197V16.8083C13.8898 16.0227 14.2008 15.2692 14.7548 14.7126C15.3088 14.156 16.0606 13.8418 16.8456 13.8386H29.3416C30.1277 13.8417 30.8807 14.1556 31.4366 14.7119C31.9925 15.2681 32.3062 16.0216 32.3094 16.8083L32.3454 54.0197ZM61.1823 36.9349C61.1823 37.328 61.1044 37.7171 60.953 38.0798C60.8016 38.4424 60.5797 38.7714 60.3003 39.0477C60.0209 39.3239 59.6895 39.5419 59.3252 39.689C58.961 39.8361 58.5712 39.9094 58.1784 39.9046H45.6825C44.8963 39.9014 44.1433 39.5876 43.5874 39.0313C43.0315 38.4751 42.7178 37.7216 42.7147 36.9349V16.8083C42.7178 16.0216 43.0315 15.2681 43.5874 14.7119C44.1433 14.1556 44.8963 13.8417 45.6825 13.8386H58.1784C58.9635 13.8418 59.7152 14.156 60.2692 14.7126C60.8232 15.2692 61.1342 16.0227 61.1342 16.8083L61.1823 36.9349Z" fill="url(#paint0_linear_604_13)"/>
<defs>
<linearGradient id="paint0_linear_604_13" x1="11678.5" y1="4758" x2="11678.5" y2="0" gradientUnits="userSpaceOnUse">
<stop stop-color="white"/>
<stop offset="1" stop-color="white"/>
</linearGradient>
</defs>
</svg>
