<svg width="48" height="48" viewBox="0 0 48 48" fill="none" xmlns="http://www.w3.org/2000/svg">
<path d="M0 24V0H48V48H0" fill="white"/>
<path d="M10.524 24.0841V26.0401H16.764V43.8001H21.192V26.0401H27.432V24.1201C27.432 23.0401 27.432 22.1641 27.384 22.1401C27.384 22.1041 23.58 22.0921 18.96 22.0921L10.56 22.1281V24.0961L10.524 24.0841ZM38.568 22.0801C39.792 22.3681 40.728 22.9201 41.568 23.7961C42.012 24.2761 42.672 25.1161 42.72 25.3321C42.72 25.4041 40.644 26.8081 39.384 27.5881C39.336 27.6241 39.144 27.4201 38.952 27.1081C38.328 26.2201 37.692 25.8361 36.696 25.7641C35.256 25.6681 34.296 26.4241 34.296 27.6841C34.296 28.0681 34.368 28.2841 34.512 28.5961C34.836 29.2561 35.436 29.6521 37.296 30.4681C40.728 31.9441 42.216 32.9161 43.116 34.3081C44.136 35.8681 44.364 38.3161 43.68 40.1521C42.912 42.1561 41.04 43.5121 38.364 43.9561C37.524 44.1001 35.604 44.0761 34.704 43.9201C32.784 43.5601 30.948 42.6001 29.82 41.3641C29.376 40.8841 28.524 39.6001 28.572 39.5161L29.028 39.2281L30.828 38.1841L32.184 37.3921L32.496 37.8121C32.892 38.4361 33.78 39.2761 34.296 39.5641C35.856 40.3681 37.944 40.2601 38.976 39.3241C39.42 38.9161 39.612 38.4841 39.612 37.8841C39.612 37.3321 39.528 37.0801 39.252 36.6601C38.868 36.1321 38.1 35.7001 35.94 34.7401C33.456 33.6841 32.4 33.0121 31.416 31.9801C30.852 31.3561 30.336 30.3841 30.096 29.5801C29.916 28.8841 29.856 27.1801 30.024 26.4961C30.54 24.0961 32.352 22.4161 34.944 21.9361C35.784 21.7681 37.764 21.8401 38.592 22.0561L38.568 22.0801Z" fill="#202020"/>
</svg>
